<?xml version="1.0" encoding="UTF-8"?>
<!DOCTYPE svg PUBLIC "-//W3C//DTD SVG 1.1//EN" "http://www.w3.org/Graphics/SVG/1.1/DTD/svg11.dtd">
<!-- Creator: CorelDRAW X8 -->
<svg xmlns="http://www.w3.org/2000/svg" xml:space="preserve" width="5.223mm" height="3.5278mm" version="1.1" style="shape-rendering:geometricPrecision; text-rendering:geometricPrecision; image-rendering:optimizeQuality; fill-rule:evenodd; clip-rule:evenodd"
viewBox="0 0 756 511"
 xmlns:xlink="http://www.w3.org/1999/xlink" fill="white">
 <g id="Camada_x0020_1">
  <metadata id="CorelCorpID_0Corel-Layer"/>
  <path class="fil0" d="M130 466l41 -40c-19,-12 -37,-26 -54,-40 -41,-34 -81,-74 -112,-117 -3,-4 -5,-9 -5,-14 0,-5 2,-10 5,-14 31,-42 71,-82 111,-116 73,-60 162,-109 259,-110l6 0c56,0 109,17 158,42l50 -49c10,-11 26,-10 37,0l0 0c10,10 10,26 0,36l-459 459c-10,10 -27,10 -37,0l0 0c-10,-10 -10,-27 0,-37zm75 -75l51 -50c-17,-25 -27,-54 -27,-86 0,-82 67,-149 149,-149 32,0 61,10 85,27l40 -40c-40,-19 -82,-30 -125,-30 -122,0 -240,94 -316,183l-8 9 8 9c38,46 88,92 143,127zm86 -85l138 -138c-15,-9 -33,-14 -51,-14 -56,0 -101,46 -101,101 0,19 5,36 14,51zm-55 157c45,20 92,33 142,33 97,0 188,-49 261,-110 41,-34 81,-74 112,-117 6,-8 6,-19 0,-28 -31,-42 -71,-82 -111,-116 -12,-10 -25,-20 -38,-29l-34 35c48,33 91,75 126,115l7 9 -7 9c-75,90 -194,184 -316,184 -36,0 -71,-8 -105,-22l-37 37zm75 -75c20,10 43,16 67,16 82,0 149,-67 149,-149 0,-24 -6,-47 -16,-67l-37 37c3,9 5,20 5,30 0,56 -45,101 -101,101 -11,0 -21,-1 -31,-5l-36 37z"/>
 </g>
</svg>
