<svg xmlns="http://www.w3.org/2000/svg" xml:space="preserve" width="5.223mm" height="3.3234mm" version="1.1" 
viewBox="0 0 9019 5739"
 xmlns:xlink="http://www.w3.org/1999/xlink" fill="white" >
 <g id="test" >
  <path class="fil0" d="M4543 0l-64 0c-1156,11 -2227,594 -3096,1317 -482,401 -958,876 -1328,1383 -36,49 -55,109 -55,169 0,61 19,120 55,169 372,510 853,989 1338,1392 875,726 1954,1309 3117,1309 1162,0 2241,-583 3115,-1309 486,-403 966,-882 1339,-1392 74,-100 74,-237 0,-338 -371,-506 -846,-982 -1328,-1383 -868,-722 -1939,-1306 -3093,-1317zm3735 2978c-897,1064 -2311,2189 -3768,2189 -1456,0 -2873,-1126 -3769,-2190l-92 -108 92 -109c901,-1060 2311,-2189 3769,-2189 1455,0 2868,1131 3768,2190l92 108 -92 109zm-3768 -1886c-980,0 -1777,797 -1777,1777 0,980 797,1777 1777,1777 979,0 1776,-797 1776,-1777 0,-980 -797,-1777 -1776,-1777zm1204 1777c0,664 -540,1205 -1204,1205 -665,0 -1205,-541 -1205,-1205 0,-664 540,-1204 1205,-1204 664,0 1204,540 1204,1204z"/>
 </g>
</svg>
