<svg width="30" height="30" viewBox="0 0 30 30" fill="none" xmlns="http://www.w3.org/2000/svg">
<path d="M27.3871 28.6764L24.4787 14.1346H18.0983L18.5598 16.4424H11.4402L11.9017 14.1346H5.52134L2.61298 28.6764C2.56218 28.9307 2.62798 29.1944 2.79234 29.3948C2.95669 29.5954 3.20226 29.7116 3.4616 29.7116H8.07697C8.48947 29.7116 8.84466 29.4204 8.92558 29.0159L10.171 22.7885H19.8291L21.0746 29.0159C21.1554 29.4204 21.5107 29.7116 21.9232 29.7116H26.5386C26.7978 29.7116 27.0434 29.5953 27.2078 29.3948C27.3721 29.1944 27.4379 28.9307 27.3871 28.6764Z" fill="black"/>
<path d="M8.07692 0.288452C6.42457 0.288452 5.06385 1.55818 4.9176 3.17308H11.2364C11.09 1.55824 9.72932 0.288452 8.07692 0.288452Z" fill="black"/>
<path d="M21.9231 0.288452C20.2708 0.288452 18.91 1.55818 18.7638 3.17308H25.0826C24.9362 1.55824 23.5755 0.288452 21.9231 0.288452Z" fill="black"/>
<path d="M20.3414 4.90381C20.3301 5.02223 20.2949 5.14023 20.2321 5.25027L16.1495 12.4038H19.9339C19.9472 12.3721 19.962 12.3408 19.9795 12.3102L24.2064 4.90381H20.3414Z" fill="black"/>
<path d="M8.85895 4.90381C8.84015 4.97266 8.81349 5.04039 8.77651 5.1052L4.61108 12.4038H8.4079C8.42583 12.3491 8.4495 12.2953 8.47921 12.2433L12.6679 4.90381H8.85895Z" fill="black"/>
<path d="M14.6282 4.90381C14.6094 4.97266 14.5828 5.04039 14.5458 5.1052L10.3804 12.4038H14.1772C14.1951 12.3491 14.2188 12.2953 14.2485 12.2433L18.4372 4.90381H14.6282Z" fill="black"/>
<path d="M0.865371 4.90381C0.38748 4.90381 0 5.29129 0 5.76924V11.5385C0 12.0164 0.38748 12.4039 0.865371 12.4039H2.61832L6.89871 4.90387H0.865371V4.90381Z" fill="black"/>
<path d="M29.1347 4.90381H26.1666C26.1478 4.97266 26.1212 5.04039 26.0842 5.1052L21.9188 12.4038H29.1347C29.6126 12.4038 30 12.0163 30 11.5384V5.76924C30 5.29129 29.6125 4.90381 29.1347 4.90381Z" fill="black"/>
</svg>
