<svg width="27" height="18" viewBox="0 0 27 18" fill="none" xmlns="http://www.w3.org/2000/svg">
<path d="M25.0714 11.625H1.92857C0.863638 11.625 0 12.4926 0 13.5625V15.5C0 16.5699 0.863638 17.4375 1.92857 17.4375H25.0714C26.1364 17.4375 27 16.5699 27 15.5V13.5625C27 12.4926 26.1364 11.625 25.0714 11.625ZM25.0714 0H1.92857C0.863638 0 0 0.867637 0 1.9375V3.875C0 4.94486 0.863638 5.8125 1.92857 5.8125H25.0714C26.1364 5.8125 27 4.94486 27 3.875V1.9375C27 0.867637 26.1364 0 25.0714 0Z" fill="black"/>
</svg>
