<svg width="35" height="35" viewBox="0 0 35 35" fill="none" xmlns="http://www.w3.org/2000/svg">
<path d="M28.6066 9.45L28.627 9.42521L22.7937 4.70021L20.9562 6.96646L23.9706 9.40771C23.2228 9.86212 22.629 10.531 22.2665 11.3274C21.9039 12.1237 21.7894 13.0108 21.9377 13.8731C22.1564 15.1842 23.0591 16.3173 24.2273 16.9517C25.5325 17.6619 26.6772 17.5963 27.6952 17.2346L27.6733 26.25C27.6751 26.4915 27.6166 26.7296 27.5032 26.9428C27.3897 27.156 27.225 27.3375 27.0237 27.471C26.8225 27.6045 26.5911 27.6857 26.3506 27.7073C26.1101 27.7289 25.868 27.6901 25.6462 27.5946C25.4725 27.5203 25.315 27.4128 25.1825 27.2781C25.0476 27.143 24.9408 26.9827 24.868 26.8063C24.7951 26.6299 24.7578 26.4409 24.7581 26.25L24.7916 23.3333C24.7931 22.7593 24.6808 22.1907 24.4613 21.6603C24.2418 21.1299 23.9194 20.6482 23.5127 20.2431C23.1064 19.836 22.6238 19.5129 22.0926 19.2925C21.5613 19.072 20.9918 18.9585 20.4166 18.9583H18.9583V7.29167C18.9583 6.51812 18.651 5.77625 18.104 5.22927C17.557 4.68229 16.8152 4.375 16.0416 4.375H5.83329C5.05974 4.375 4.31788 4.68229 3.7709 5.22927C3.22392 5.77625 2.91663 6.51812 2.91663 7.29167V27.7083C2.91663 28.4819 3.22392 29.2238 3.7709 29.7707C4.31788 30.3177 5.05974 30.625 5.83329 30.625H16.0416C16.8152 30.625 17.557 30.3177 18.104 29.7707C18.651 29.2238 18.9583 28.4819 18.9583 27.7083V21.875H20.4166C20.615 21.875 20.806 21.9144 20.9868 21.9888C21.3339 22.1407 21.6106 22.4184 21.7612 22.766C21.8369 22.9456 21.8755 23.1385 21.875 23.3333L21.84 26.25C21.84 26.8421 21.9552 27.4152 22.1841 27.9533C22.4043 28.4769 22.7208 28.945 23.1189 29.3402C23.5237 29.7493 24.006 30.0737 24.5376 30.2943C25.0692 30.5149 25.6394 30.6273 26.215 30.625C26.807 30.625 27.3787 30.5113 27.9183 30.2808C28.4404 30.0621 28.91 29.7456 29.3052 29.346C29.7134 28.9406 30.0372 28.4582 30.2577 27.9267C30.4783 27.3953 30.5912 26.8254 30.59 26.25L30.625 13.125C30.6235 12.3924 30.4379 11.6718 30.0852 11.0297C29.7326 10.3875 29.2241 9.84431 28.6066 9.45ZM16.0416 11.6667H5.83329V7.29167H16.0416V11.6667ZM26.25 14.5833C25.8632 14.5833 25.4923 14.4297 25.2188 14.1562C24.9453 13.8827 24.7916 13.5118 24.7916 13.125C24.7916 12.7382 24.9453 12.3673 25.2188 12.0938C25.4923 11.8203 25.8632 11.6667 26.25 11.6667C26.6367 11.6667 27.0077 11.8203 27.2812 12.0938C27.5546 12.3673 27.7083 12.7382 27.7083 13.125C27.7083 13.5118 27.5546 13.8827 27.2812 14.1562C27.0077 14.4297 26.6367 14.5833 26.25 14.5833Z" fill="black"/>
</svg>
