<svg width="512" height="513" viewBox="0 0 512 513" fill="none" xmlns="http://www.w3.org/2000/svg">
<path d="M504 312H312C307.582 312 304 315.582 304 320H250.064C235.677 320.018 224.018 331.677 224 346.064V352C224 356.418 227.582 360 232 360H233.312L229.704 403.256C221.298 407.77 216.039 416.523 216 426.064V472C216 476.418 219.582 480 224 480H232.408C234.453 499.661 252.049 513.942 271.71 511.898C288.548 510.147 301.856 496.838 303.608 480H304C304 484.418 307.582 488 312 488H425.888C432.204 506.199 452.077 515.832 470.276 509.516C480.363 506.015 488.291 498.087 491.792 488H504C508.418 488 512 484.418 512 480V320C512 315.582 508.419 312 504 312ZM268 496C256.954 496 248 487.046 248 476C248 464.954 256.954 456 268 456C279.046 456 288 464.954 288 476C288 487.046 279.046 496 268 496ZM304 464H301.792C296.737 449.659 283.206 440.049 268 440C252.794 440.049 239.263 449.659 234.208 464H232V426.064C232.004 420.508 236.508 416.004 242.064 416H304V464ZM304 400H246.032L249.36 360H304V400ZM304 344H240.208C241.194 339.341 245.302 336.006 250.064 336H304V344ZM477.936 476.344C477.927 486.89 469.378 495.436 458.832 495.44C448.281 495.44 439.728 486.887 439.728 476.336C439.728 465.785 448.281 457.232 458.832 457.232C469.383 457.232 477.936 465.785 477.936 476.336C477.936 476.339 477.936 476.341 477.936 476.344ZM496 472H493.496C491.202 452.86 473.827 439.204 454.686 441.497C438.701 443.413 426.099 456.014 424.183 472H320V328H496V472Z" fill="#322153"/>
<path d="M80 216C82.401 215.998 84.674 214.917 86.192 213.056C93.752 203.8 160 121.424 160 80C160 35.817 124.183 0 80 0C35.817 0 0 35.817 0 80C0 121.424 66.248 203.8 73.808 213.056C75.326 214.917 77.599 215.998 80 216ZM80 16C115.33 16.04 143.96 44.67 144 80C144 107.448 102.328 166.536 80 195.2C57.672 166.536 16 107.448 16 80C16.04 44.67 44.67 16.04 80 16Z" fill="#322153"/>
<path d="M124 72.8C124 48.499 104.301 28.8 80 28.8C55.699 28.8 36 48.499 36 72.8C36 97.101 55.699 116.8 80 116.8C104.29 116.774 123.974 97.09 124 72.8ZM52 72.8C52 57.336 64.536 44.8 80 44.8C95.464 44.8 108 57.336 108 72.8C108 88.264 95.464 100.8 80 100.8C64.536 100.8 52 88.264 52 72.8Z" fill="#322153"/>
<path d="M216 248C211.582 248 208 251.582 208 256C208 260.418 211.582 264 216 264H232C236.418 264 240 260.418 240 256C240 251.582 236.418 248 232 248H216Z" fill="#34CB79"/>
<path d="M264 248C259.582 248 256 251.582 256 256C256 260.418 259.582 264 264 264H280C284.418 264 288 260.418 288 256C288 251.582 284.418 248 280 248H264Z" fill="#34CB79"/>
<path d="M256 176H272C276.418 176 280 172.418 280 168C280 163.582 276.418 160 272 160H256C251.582 160 248 163.582 248 168C248 172.418 251.582 176 256 176Z" fill="#34CB79"/>
<path d="M208 176H224C228.418 176 232 172.418 232 168C232 163.582 228.418 160 224 160H208C203.582 160 200 163.582 200 168C200 172.418 203.582 176 208 176Z" fill="#34CB79"/>
<path d="M176 208C176 203.582 172.418 200 168 200C163.582 200 160 203.582 160 208V224C160 228.418 163.582 232 168 232C172.418 232 176 228.418 176 224V208Z" fill="#34CB79"/>
<path d="M160 176C160 180.418 163.582 184 168 184C172.418 184 176 180.418 176 176C180.418 176 184 172.418 184 168C184 163.582 180.418 160 176 160H168C163.582 160 160 163.582 160 168V176Z" fill="#34CB79"/>
<path d="M448 176H464C468.418 176 472 172.418 472 168C472 163.582 468.418 160 464 160H448C443.582 160 440 163.582 440 168C440 172.418 443.582 176 448 176Z" fill="#34CB79"/>
<path d="M168 248H152C147.582 248 144 251.582 144 256C144 260.418 147.582 264 152 264H168C172.418 264 176 260.418 176 256C176 251.582 172.419 248 168 248Z" fill="#34CB79"/>
<path d="M456 248C451.582 248 448 251.582 448 256C448 260.418 451.582 264 456 264H472C476.418 264 480 260.418 480 256C480 251.582 476.418 248 472 248H456Z" fill="#34CB79"/>
<path d="M488 200C492.418 200 496 196.418 496 192V176C496 171.582 492.418 168 488 168C483.582 168 480 171.582 480 176V192C480 196.418 483.582 200 488 200Z" fill="#34CB79"/>
<path d="M408 248C403.582 248 400 251.582 400 256C400 260.418 403.582 264 408 264H424C428.418 264 432 260.418 432 256C432 251.582 428.418 248 424 248H408Z" fill="#34CB79"/>
<path d="M304 176H320C324.418 176 328 172.418 328 168C328 163.582 324.418 160 320 160H304C299.582 160 296 163.582 296 168C296 172.418 299.582 176 304 176Z" fill="#34CB79"/>
<path d="M488 248C492.418 248 496 244.418 496 240V224C496 219.582 492.418 216 488 216C483.582 216 480 219.582 480 224V240C480 244.418 483.582 248 488 248Z" fill="#34CB79"/>
<path d="M352 176H368C372.418 176 376 172.418 376 168C376 163.582 372.418 160 368 160H352C347.582 160 344 163.582 344 168C344 172.418 347.582 176 352 176Z" fill="#34CB79"/>
<path d="M312 248C307.582 248 304 251.582 304 256C304 260.418 307.582 264 312 264H328C332.418 264 336 260.418 336 256C336 251.582 332.418 248 328 248H312Z" fill="#34CB79"/>
<path d="M360 248C355.582 248 352 251.582 352 256C352 260.418 355.582 264 360 264H376C380.418 264 384 260.418 384 256C384 251.582 380.418 248 376 248H360Z" fill="#34CB79"/>
<path d="M400 176H416C420.418 176 424 172.418 424 168C424 163.582 420.418 160 416 160H400C395.582 160 392 163.582 392 168C392 172.418 395.582 176 400 176Z" fill="#34CB79"/>
<path d="M8 344C8 348.418 11.582 352 16 352C20.418 352 24 348.418 24 344V328C24 323.582 20.418 320 16 320C11.582 320 8 323.582 8 328V344Z" fill="#34CB79"/>
<path d="M104 456C104 451.582 100.418 448 96 448C91.582 448 88 451.582 88 456V464C88 468.418 91.582 472 96 472H104C108.418 472 112 468.418 112 464C112 459.582 108.419 456 104 456Z" fill="#34CB79"/>
<path d="M152 456H136C131.582 456 128 459.582 128 464C128 468.418 131.582 472 136 472H152C156.418 472 160 468.418 160 464C160 459.582 156.419 456 152 456Z" fill="#34CB79"/>
<path d="M160 416H144C139.582 416 136 419.582 136 424C136 428.418 139.582 432 144 432H160C164.418 432 168 428.418 168 424C168 419.582 164.419 416 160 416Z" fill="#34CB79"/>
<path d="M112 416H96C91.582 416 88 419.582 88 424C88 428.418 91.582 432 96 432H112C116.418 432 120 428.418 120 424C120 419.582 116.419 416 112 416Z" fill="#34CB79"/>
<path d="M160 368C155.582 368 152 371.582 152 376V392C152 396.418 155.582 400 160 400C164.418 400 168 396.418 168 392V376C168 371.582 164.419 368 160 368Z" fill="#34CB79"/>
<path d="M216 280C216 275.582 212.418 272 208 272C203.582 272 200 275.582 200 280V296C200 300.418 203.582 304 208 304C212.418 304 216 300.418 216 296V280Z" fill="#34CB79"/>
<path d="M200 456H184C179.582 456 176 459.582 176 464C176 468.418 179.582 472 184 472H200C204.418 472 208 468.418 208 464C208 459.582 204.419 456 200 456Z" fill="#34CB79"/>
<path d="M192 304C192 299.582 188.418 296 184 296H168C163.582 296 160 299.582 160 304C160 308.418 163.582 312 168 312H184C188.419 312 192 308.418 192 304Z" fill="#34CB79"/>
<path d="M80 368H64C59.582 368 56 371.582 56 376C56 380.418 59.582 384 64 384H80C84.418 384 88 380.418 88 376C88 371.582 84.419 368 80 368Z" fill="#34CB79"/>
<path d="M144 304C144 299.582 140.418 296 136 296H120C115.582 296 112 299.582 112 304C112 308.418 115.582 312 120 312H136C140.419 312 144 308.418 144 304Z" fill="#34CB79"/>
<path d="M112 384H128C132.418 384 136 380.418 136 376C136 371.582 132.418 368 128 368H112C107.582 368 104 371.582 104 376C104 380.418 107.582 384 112 384Z" fill="#34CB79"/>
<path d="M64 304C64 308.418 67.582 312 72 312H88C92.418 312 96 308.418 96 304C96 299.582 92.418 296 88 296H72C67.582 296 64 299.582 64 304Z" fill="#34CB79"/>
<path d="M128 256C128 251.582 124.418 248 120 248H104C99.582 248 96 251.582 96 256C96 260.418 99.582 264 104 264H120C124.419 264 128 260.418 128 256Z" fill="#34CB79"/>
<path d="M88 248V232C88 227.582 84.418 224 80 224C75.582 224 72 227.582 72 232V248C72 252.418 75.582 256 80 256C84.418 256 88 252.418 88 248Z" fill="#34CB79"/>
<path d="M40 296H24C19.582 296 16 299.582 16 304C16 308.418 19.582 312 24 312H40C44.418 312 48 308.418 48 304C48 299.582 44.419 296 40 296Z" fill="#34CB79"/>
<path d="M32 368H16C11.582 368 8 371.582 8 376C8 380.418 11.582 384 16 384H32C36.418 384 40 380.418 40 376C40 371.582 36.419 368 32 368Z" fill="#34CB79"/>
</svg>
