<svg width="20" height="20" viewBox="0 0 20 20" fill="none" xmlns="http://www.w3.org/2000/svg">
<g clip-path="url(#clip0)">
<path fill-rule="evenodd" clip-rule="evenodd" d="M13.75 16.25C14.9595 16.25 16.143 15.899 17.157 15.2397C18.1709 14.5804 18.9718 13.641 19.4625 12.5356C19.9532 11.4301 20.1125 10.206 19.9213 9.0117C19.73 7.81743 19.1964 6.70432 18.385 5.80734C17.5737 4.91037 16.5195 4.26808 15.3503 3.95838C14.1812 3.64867 12.9473 3.68485 11.7983 4.06253C10.6493 4.44021 9.63453 5.14316 8.87712 6.08613C8.11972 7.0291 7.6522 8.17158 7.53125 9.375H5C5 8.87772 4.80246 8.40081 4.45083 8.04917C4.09919 7.69754 3.62228 7.5 3.125 7.5H1.875C1.37772 7.5 0.900805 7.69754 0.549175 8.04917C0.197544 8.40081 0 8.87772 0 9.375L0 10.625C0 11.1223 0.197544 11.5992 0.549175 11.9508C0.900805 12.3025 1.37772 12.5 1.875 12.5H3.125C3.62228 12.5 4.09919 12.3025 4.45083 11.9508C4.80246 11.5992 5 11.1223 5 10.625H7.53125C7.68619 12.1666 8.40824 13.5958 9.55732 14.6352C10.7064 15.6745 12.2006 16.25 13.75 16.25ZM14.375 6.875C14.375 6.70924 14.3092 6.55027 14.1919 6.43306C14.0747 6.31585 13.9158 6.25 13.75 6.25C13.5842 6.25 13.4253 6.31585 13.3081 6.43306C13.1908 6.55027 13.125 6.70924 13.125 6.875V9.375H10.625C10.4592 9.375 10.3003 9.44085 10.1831 9.55806C10.0658 9.67527 10 9.83424 10 10C10 10.1658 10.0658 10.3247 10.1831 10.4419C10.3003 10.5592 10.4592 10.625 10.625 10.625H13.125V13.125C13.125 13.2908 13.1908 13.4497 13.3081 13.5669C13.4253 13.6842 13.5842 13.75 13.75 13.75C13.9158 13.75 14.0747 13.6842 14.1919 13.5669C14.3092 13.4497 14.375 13.2908 14.375 13.125V10.625H16.875C17.0408 10.625 17.1997 10.5592 17.3169 10.4419C17.4342 10.3247 17.5 10.1658 17.5 10C17.5 9.83424 17.4342 9.67527 17.3169 9.55806C17.1997 9.44085 17.0408 9.375 16.875 9.375H14.375V6.875Z" fill="black"/>
</g>
<defs>
<clipPath id="clip0">
<rect width="20" height="20" fill="white"/>
</clipPath>
</defs>
</svg>
