<?xml version="1.0" encoding="UTF-8"?>
<!DOCTYPE svg PUBLIC "-//W3C//DTD SVG 1.1//EN" "http://www.w3.org/Graphics/SVG/1.1/DTD/svg11.dtd">
<!-- Creator: CorelDRAW X8 -->
<svg xmlns="http://www.w3.org/2000/svg" xml:space="preserve" width="3.4657mm" height="3.5897mm" version="1.1" style="shape-rendering:geometricPrecision; text-rendering:geometricPrecision; image-rendering:optimizeQuality; fill-rule:evenodd; clip-rule:evenodd"
viewBox="0 0 388 402"
 xmlns:xlink="http://www.w3.org/1999/xlink" fill="#E61E1E">
 <defs>
  <style type="text/css">
   <![CDATA[
    .fil0 {fill-rule:nonzero}
   ]]>
  </style>
 </defs>
 <g id="Camada_x0020_1">
  <metadata id="CorelCorpID_0Corel-Layer"/>
  <path class="fil0" d="M382 366l-95 -99c24,-29 38,-66 38,-105 0,-89 -73,-162 -163,-162 -89,0 -162,73 -162,162 0,90 73,163 162,163 34,0 66,-10 93,-30l97 101c4,4 9,6 15,6 6,0 11,-2 15,-6 8,-8 8,-21 0,-30zm-220 -324c67,0 120,54 120,120 0,67 -53,120 -120,120 -66,0 -120,-53 -120,-120 0,-66 54,-120 120,-120z"/>
 </g>
</svg>
