<svg width="31" height="30" viewBox="0 0 31 30" fill="none" xmlns="http://www.w3.org/2000/svg">
<path d="M30.57 12.72L27.22 11.72C26.9884 10.9113 26.6698 10.1301 26.27 9.39003L27.91 6.32003C27.9715 6.20415 27.994 6.07151 27.9742 5.94181C27.9544 5.81211 27.8933 5.69225 27.8 5.60003L25.41 3.20003C25.3177 3.1067 25.1979 3.04559 25.0682 3.02578C24.9385 3.00596 24.8059 3.02849 24.69 3.09003L21.64 4.72003C20.8926 4.30069 20.1011 3.96532 19.28 3.72003L18.28 0.410031C18.2377 0.288047 18.1578 0.18263 18.0517 0.108953C17.9457 0.0352757 17.819 -0.00286131 17.69 3.10984e-05H14.31C14.1801 0.000635672 14.0538 0.0426656 13.9495 0.120004C13.8452 0.197343 13.7683 0.305954 13.73 0.430031L12.73 3.73003C11.902 3.97401 11.1037 4.30941 10.35 4.73003L7.34997 3.11003C7.23409 3.04849 7.10145 3.02596 6.97175 3.04578C6.84205 3.06559 6.72219 3.1267 6.62997 3.22003L4.19997 5.59003C4.10664 5.68225 4.04553 5.80211 4.02572 5.93181C4.0059 6.06151 4.02843 6.19415 4.08997 6.31003L5.70997 9.31003C5.29003 10.0606 4.95464 10.8555 4.70997 11.68L1.39997 12.68C1.27589 12.7183 1.16728 12.7953 1.08994 12.8996C1.01261 13.0039 0.970575 13.1302 0.969971 13.26V16.64C0.970575 16.7699 1.01261 16.8962 1.08994 17.0005C1.16728 17.1048 1.27589 17.1817 1.39997 17.22L4.72997 18.22C4.97732 19.0308 5.31265 19.8122 5.72997 20.55L4.08997 23.69C4.02843 23.8059 4.0059 23.9385 4.02572 24.0683C4.04553 24.198 4.10664 24.3178 4.19997 24.41L6.58997 26.8C6.68219 26.8934 6.80205 26.9545 6.93175 26.9743C7.06145 26.9941 7.19409 26.9716 7.30997 26.91L10.4 25.26C11.1309 25.6545 11.902 25.9696 12.7 26.2L13.7 29.57C13.7383 29.6941 13.8152 29.8027 13.9195 29.8801C14.0238 29.9574 14.1501 29.9994 14.28 30H17.66C17.7898 29.9994 17.9161 29.9574 18.0204 29.8801C18.1247 29.8027 18.2017 29.6941 18.24 29.57L19.24 26.19C20.0311 25.9584 20.7954 25.6433 21.52 25.25L24.63 26.91C24.7459 26.9716 24.8785 26.9941 25.0082 26.9743C25.1379 26.9545 25.2578 26.8934 25.35 26.8L27.74 24.41C27.8333 24.3178 27.8944 24.198 27.9142 24.0683C27.934 23.9385 27.9115 23.8059 27.85 23.69L26.19 20.59C26.5873 19.8627 26.9058 19.095 27.14 18.3L30.51 17.3C30.634 17.2617 30.7427 17.1848 30.82 17.0805C30.8973 16.9762 30.9394 16.8499 30.94 16.72V13.31C30.9459 13.1857 30.9136 13.0625 30.8474 12.957C30.7813 12.8516 30.6845 12.7689 30.57 12.72ZM16 20.5C14.9122 20.5 13.8488 20.1775 12.9443 19.5731C12.0399 18.9688 11.3349 18.1098 10.9186 17.1048C10.5024 16.0998 10.3934 14.9939 10.6057 13.927C10.8179 12.8601 11.3417 11.8801 12.1109 11.1109C12.8801 10.3418 13.8601 9.81793 14.927 9.60571C15.9939 9.39349 17.0997 9.50241 18.1047 9.91869C19.1097 10.335 19.9687 11.0399 20.5731 11.9444C21.1774 12.8489 21.5 13.9122 21.5 15C21.5 16.4587 20.9205 17.8577 19.8891 18.8891C18.8576 19.9206 17.4587 20.5 16 20.5Z" fill="#322153"/>
</svg>
