<?xml version="1.0" encoding="UTF-8"?>
<!DOCTYPE svg PUBLIC "-//W3C//DTD SVG 1.1//EN" "http://www.w3.org/Graphics/SVG/1.1/DTD/svg11.dtd">
<!-- Creator: CorelDRAW X8 -->
<svg xmlns="http://www.w3.org/2000/svg" xml:space="preserve" width="52.434mm" height="37.8337mm" version="1.1" style="shape-rendering:geometricPrecision; text-rendering:geometricPrecision; image-rendering:optimizeQuality; fill-rule:evenodd; clip-rule:evenodd"
viewBox="0 0 159947 115409"
 xmlns:xlink="http://www.w3.org/1999/xlink">
 <defs>
  <style type="text/css">
   <![CDATA[
    .fil0 {fill:#F9E4E6}
    .fil13 {fill:#FCB75F;fill-rule:nonzero}
    .fil7 {fill:#F6968C;fill-rule:nonzero}
    .fil12 {fill:#DC9A4B;fill-rule:nonzero}
    .fil8 {fill:#B6636D;fill-rule:nonzero}
    .fil10 {fill:#7BB3E1;fill-rule:nonzero}
    .fil11 {fill:#5782AC;fill-rule:nonzero}
    .fil3 {fill:#4666AE;fill-rule:nonzero}
    .fil1 {fill:#365C82;fill-rule:nonzero}
    .fil6 {fill:#2F527E;fill-rule:nonzero}
    .fil9 {fill:#2D354D;fill-rule:nonzero}
    .fil4 {fill:#32385B;fill-rule:nonzero}
    .fil2 {fill:#F55658;fill-rule:nonzero}
    .fil5 {fill:#FF7C80;fill-rule:nonzero}
   ]]>
  </style>
 </defs>
 <g id="Camada_x0020_1">
  <metadata id="CorelCorpID_0Corel-Layer"/>
  <circle class="fil0" cx="79974" cy="61211" r="54199"/>
  <path class="fil1" d="M107571 26348l37 -43c389,-440 3782,-4071 9996,-4070 2114,0 4556,419 7326,1529 8235,3299 16394,14035 16391,28338 0,5549 -1226,11635 -4149,18036l313 143c2942,-6443 4179,-12580 4179,-18179 -3,-14435 -8215,-25287 -16606,-28656 -2806,-1126 -5295,-1555 -7454,-1555 -6781,2 -10282,4220 -10297,4238l264 219z"/>
  <path class="fil2" d="M108611 31300c-527,1356 -5773,-685 -5245,-2041l735 -1889c564,-1448 2195,-2166 3643,-1602 1449,564 2166,2195 1602,3643l-735 1889z"/>
  <path class="fil3" d="M103366 29259c-598,1327 4718,3397 5245,2041 402,-1047 -4814,-2997 -5245,-2041z"/>
  <path class="fil4" d="M105438 30277c-58,169 -309,238 -562,152 -252,-85 -411,-292 -353,-461 57,-169 308,-238 561,-152 252,85 411,291 354,461z"/>
  <path class="fil4" d="M107299 30964c-57,169 -308,238 -561,152 -253,-85 -411,-291 -354,-461 57,-169 309,-237 561,-152 253,85 411,292 354,461z"/>
  <path class="fil5" d="M136490 97232c0,0 -2268,-625 -3747,-2700 -1479,-2075 -690,-7031 1874,-8448 2563,-1417 4536,-3094 4141,-6939 -394,-3846 888,-6904 4142,-7298 3254,-395 4536,-442 7791,-3377 3254,-2934 5916,-3398 7198,-1736 1282,1662 296,3908 -394,5891 -690,1983 1775,4008 2268,6003 493,1996 99,4570 -2465,5995 -2564,1424 -4339,2566 -4044,5151 296,2585 -1183,6512 -6705,7458l-10059 0z"/>
  <path class="fil2" d="M153534 70613c-17,14 -3043,2389 -6338,6895 -3294,4506 -6860,11147 -7934,19680 -23,190 111,363 301,386 189,24 362,-110 386,-299 1055,-8388 4561,-14921 7805,-19358 1622,-2219 3178,-3912 4327,-5050 574,-568 1046,-998 1374,-1284 164,-143 292,-251 378,-322 43,-36 75,-62 97,-80l31 -25c150,-118 176,-335 59,-485 -119,-150 -336,-177 -486,-58z"/>
  <path class="fil2" d="M125248 63854c-1892,1190 -1775,3251 -1676,5869 98,2617 -652,3569 -2150,5312 -1499,1743 -690,4405 1913,5589 2604,1183 4872,3012 3491,6091 -1381,3080 -887,8683 5917,10517l8750 19c0,0 6140,-3576 6930,-10101 788,-6526 -4438,-7103 -5917,-9280 -1479,-2177 -1040,-5144 -1013,-8147 27,-3004 -2242,-4524 -5299,-4356 -3057,169 -4250,-3 -5828,-1083 -1578,-1079 -3540,-1422 -5118,-430z"/>
  <path class="fil5" d="M127953 67799c20,84 43,107 55,128l46 55 76 64c103,82 326,257 650,548 2257,2033 9299,9591 9305,27038 0,511 -6,1030 -19,1558 -5,191 147,349 338,354 190,4 349,-147 353,-338 13,-533 19,-1058 19,-1574 0,-10525 -2546,-17547 -5110,-21947 -1282,-2200 -2566,-3745 -3535,-4747 -484,-500 -890,-866 -1175,-1109 -143,-122 -256,-213 -333,-274l-83 -67 -8 -7 -2 -1 -151 170 165 -157 -14 -13 -151 170 165 -157 -233 221 259 -190 -26 -31 -233 221 259 -190 -275 203 334 -72c-24,-93 -48,-111 -59,-131l-275 203 334 -72c-40,-186 -224,-306 -410,-266 -187,40 -306,223 -266,410z"/>
  <path class="fil2" d="M146001 98513l-143460 0c-303,0 -548,-310 -548,-691 0,-382 245,-692 548,-692l143460 0c302,0 547,310 547,692 0,381 -245,691 -547,691z"/>
  <path class="fil6" d="M61964 91246c1479,1192 5702,5973 21832,5973 4500,0 9359,188 13307,-884 10204,-2770 16885,-6482 16885,-6482l-19737 -6716 -17693 101 -14594 8008z"/>
  <polygon class="fil7" points="75542,88429 67825,89898 68104,94101 76754,93888 "/>
  <path class="fil6" d="M75542 88429c0,0 18709,-5292 24526,-6770 6661,-1693 16766,-6288 20172,-2029 3407,4259 -748,9932 -9963,12419 -9215,2487 -34431,2243 -34431,2243l-304 -5863z"/>
  <path class="fil6" d="M60564 87328c0,0 -303,966 -255,3013 48,2046 1085,3599 1190,6584 0,0 1160,-1907 1104,-5000 -57,-3094 -2039,-4597 -2039,-4597z"/>
  <path class="fil2" d="M71755 94195c-1209,129 -3230,1072 -4469,1729 -1240,656 -1902,1343 -4113,1327 0,0 -9,-5847 -246,-7656 -237,-1808 -602,-2118 -602,-2118 0,0 2049,130 3068,676 1018,546 1133,796 2930,867 1797,70 2533,166 3317,151 1193,1865 718,4129 115,5024z"/>
  <path class="fil6" d="M66722 94931c2,-10 233,-1032 233,-2311 -1,-937 -123,-2013 -568,-2935 -48,-101 -170,-143 -271,-94 -101,49 -143,170 -94,271 405,834 528,1856 528,2758 0,615 -56,1173 -113,1575 -28,202 -56,364 -77,476 -21,112 -34,170 -34,170 -25,109 44,218 153,243 109,25 218,-44 243,-153z"/>
  <path class="fil6" d="M67987 94588c3,-12 229,-795 229,-1896 0,-809 -122,-1789 -550,-2759 -46,-103 -166,-149 -268,-104 -103,46 -149,166 -104,268 399,902 517,1827 516,2595 1,522 -54,971 -107,1288 -27,159 -54,284 -74,369 -10,43 -18,75 -24,96l-8 31c-31,108 31,220 139,251 107,31 220,-31 251,-139l0 0z"/>
  <path class="fil6" d="M69408 94034c6,-18 231,-600 231,-1571 0,-644 -99,-1459 -427,-2392 -37,-106 -153,-161 -259,-123 -105,36 -161,152 -124,258 311,886 404,1654 404,2257 0,454 -53,814 -104,1058 -26,123 -52,216 -71,278l-22 68 -6 16 -1 2c-41,105 11,223 116,264 104,40 222,-11 263,-115z"/>
  <path class="fil5" d="M63173 97251c-700,-13 -1555,-33 -1674,-326 -118,-293 700,-2038 374,-5496 -174,-1858 -1478,-4040 -1309,-4101 167,-62 1191,-446 1761,149 571,594 3460,4387 848,9774z"/>
  <path class="fil7" d="M109539 49774c2433,-1721 7677,-5725 10435,-14324 875,-2729 953,-4601 930,-5854 -1422,-1198 -1273,-3463 -2572,-4869 -1824,-1977 -3459,-4485 110,-4485 1990,0 3822,81 4801,1028 776,751 2244,2973 2513,3747 608,1749 -98,3952 -174,6613 -76,2661 -1825,19313 -14675,26308l-1368 -8164z"/>
  <path class="fil7" d="M81690 43503c0,0 -58,2131 -243,3011 -186,880 0,1343 -2687,1807 0,0 1091,3520 5747,4122 4656,602 6555,-3057 6416,-3057 -139,0 -1436,-534 -1853,-804 -417,-270 -109,-5404 -109,-5404l-7271 325z"/>
  <path class="fil8" d="M88898 44478c0,0 -568,1804 -3394,1989 -2826,186 -3878,-1596 -3878,-1596l64 -1368 7271 -325 -63 1300z"/>
  <path class="fil7" d="M77246 35767c0,0 -1460,-229 -2102,845 -642,1075 160,3082 1681,3417 1457,320 1935,-497 1935,-497l-1514 -3765z"/>
  <path class="fil8" d="M75970 36839c335,-173 865,-226 1194,-26 121,74 -43,281 -153,256 -627,-141 -1362,-74 -1562,663l-41 -21c25,-396 204,-687 562,-872z"/>
  <path class="fil8" d="M76256 36857c62,-40 235,105 227,153 -91,58 -231,190 -287,330 -97,241 -107,438 -51,694 128,589 520,971 1118,1028l16 36c-488,194 -1131,-252 -1308,-689 -196,-483 -257,-1200 285,-1552z"/>
  <path class="fil7" d="M91373 33054c0,0 1273,-754 2268,6 993,760 992,2922 -296,3796 -1235,838 -1982,257 -1982,257l10 -4059z"/>
  <path class="fil8" d="M92957 33577c-375,-37 -887,111 -1118,418 -86,114 143,245 237,181 530,-363 1237,-573 1696,38l30 -36c-169,-358 -444,-562 -845,-601z"/>
  <path class="fil8" d="M92698 33700c-72,-15 -179,184 -154,225 106,21 285,92 389,201 179,187 262,367 305,626 98,594 -124,1094 -659,1369l-1 39c526,-1 957,-653 960,-1124 3,-522 -205,-1210 -840,-1336z"/>
  <path class="fil7" d="M86140 25975c-1134,-388 -2343,-512 -3506,-288 -1163,223 -2309,740 -3218,1522 -2121,1824 -2940,4707 -2424,7410l2 12c148,773 341,1537 578,2288l333 1049c259,822 845,2391 1782,3827 1859,2849 4877,3316 6613,2983 1737,-333 4367,-1886 5038,-5220 338,-1681 301,-3356 238,-4216l-80 -1097c-58,-785 -161,-1567 -311,-2339l-2 -12c-521,-2702 -2397,-5011 -5043,-5919z"/>
  <path class="fil9" d="M87184 34063c-78,-410 190,-807 601,-886 410,-78 807,190 886,601 78,410 -191,806 -601,885 -410,79 -807,-190 -886,-600z"/>
  <path class="fil9" d="M87367 31320l3563 675c0,0 -253,-978 -1520,-1491 -553,-223 -1175,-203 -1555,7 -548,303 -488,809 -488,809z"/>
  <path class="fil9" d="M81251 32407l-2605 2522c0,0 -327,-957 451,-2081 339,-491 869,-816 1302,-849 624,-48 852,408 852,408z"/>
  <path class="fil9" d="M82433 35081c-79,-411 -476,-679 -886,-601 -410,79 -679,476 -600,886 79,410 475,679 886,601 410,-79 678,-476 600,-886z"/>
  <path class="fil8" d="M85062 34338c-343,91 -593,3605 -117,4105 197,207 690,355 959,278 279,-28 682,-349 789,-614 257,-640 -1277,-3811 -1631,-3769z"/>
  <path class="fil9" d="M73314 28386l17 -3c90,-17 529,-88 1070,-88 406,-1 870,41 1281,167 413,126 760,330 990,639 124,167 360,202 526,78 167,-124 202,-360 79,-527 -356,-478 -863,-754 -1376,-910 -514,-157 -1044,-200 -1500,-200 -693,0 -1216,102 -1231,105 -204,40 -337,237 -298,441 40,205 238,338 442,298z"/>
  <path class="fil9" d="M73101 25727l4 1c71,12 870,171 1683,682 407,255 817,596 1152,1047 335,452 597,1012 711,1729 32,205 224,346 430,313 205,-32 345,-225 313,-430 -135,-864 -468,-1563 -889,-2112 -632,-825 -1449,-1313 -2104,-1599 -655,-285 -1154,-370 -1175,-374 -205,-34 -399,104 -434,309 -34,206 104,400 309,434z"/>
  <path class="fil9" d="M78101 28882c0,0 1891,2847 4999,3688 3109,841 4865,-2757 4551,-4394 0,0 3038,4892 3722,4878 0,0 741,-1973 499,-4177 -243,-2205 -1285,-3301 -2412,-4115 -1072,-774 -2117,-308 -2547,-28 -566,-1065 -2231,-3318 -5511,-2951 -3668,411 -5095,2944 -4560,6811 0,0 -1377,-389 -2202,1210 -825,1599 93,4704 1190,6177 0,0 957,-302 1416,-214 0,0 -644,-2558 -39,-4800 491,-1825 894,-2085 894,-2085z"/>
  <path class="fil5" d="M79915 48077c329,1326 2204,3429 4930,3557 2726,127 4977,-1704 5349,-2510 2276,211 5166,829 6137,1005 1375,250 2707,1476 2216,5345 -477,3758 -3458,27510 -3458,27510 0,0 -7880,3058 -18531,254 0,0 -6446,-25780 -7019,-28010 -574,-2230 -1274,-4588 765,-5289 2038,-701 9611,-1862 9611,-1862z"/>
  <path class="fil2" d="M88711 75504c150,29 302,51 455,67 1501,157 818,-1540 347,-2208 -721,-1021 -5716,-4893 -5716,-4893l-3882 328 -4373 1802 -1797 1395c363,1451 716,2860 1042,4162 1634,-1023 5587,-3451 6464,-3532 549,-51 1044,139 1538,352 712,307 1426,585 2154,851 330,120 661,241 977,394 572,277 1090,656 1667,922 358,165 737,284 1124,360z"/>
  <path class="fil1" d="M105288 67792l2828 1349c230,110 505,13 615,-217 110,-230 12,-505 -217,-615l-2829 -1349c-230,-110 -505,-12 -615,218 -109,229 -12,505 218,614z"/>
  <path class="fil1" d="M104092 70139l2828 1349c230,110 506,13 615,-218 110,-229 12,-505 -218,-614l-2828 -1349c-230,-110 -505,-13 -615,217 -110,230 -12,506 218,615z"/>
  <path class="fil1" d="M64771 79800c965,141 2123,254 3411,254 3708,1 8505,-944 12866,-4892 1958,-1772 3825,-4186 6106,-6148 2283,-1963 4961,-3474 8560,-3475 1501,0 3165,264 5029,873l107 -326c-1893,-619 -3594,-890 -5136,-890 -3700,-1 -6471,1565 -8784,3558 -2314,1993 -4187,4414 -6112,6153 -4287,3879 -8983,4803 -12636,4804 -1268,0 -2409,-112 -3361,-251l-50 340z"/>
  <path class="fil2" d="M105923 65846c1286,680 -1346,5655 -2633,4975l-1791 -948c-1374,-727 -1898,-2430 -1171,-3804 727,-1373 2430,-1898 3804,-1171l1791 948z"/>
  <path class="fil7" d="M67422 53837c0,0 -8813,15930 -10415,18616 -1603,2687 -1273,5703 -943,6457 330,754 4902,1273 9096,-330 4194,-1602 14995,-7089 15796,-7514 0,0 1026,676 2057,1165 1441,683 2608,710 3542,1417 933,707 1958,2054 3763,1183 1075,-518 -1309,-3861 -2375,-5706 -1043,-893 -4768,-2434 -6636,-2168 -2641,375 -15905,4890 -15905,4890l4806 -8293 -2786 -9717z"/>
  <path class="fil5" d="M70760 49792c-2164,680 -2998,1741 -5115,5590 -2117,3849 -4917,8533 -4917,8533 0,0 2275,3546 7291,4555l3404 -5750 -663 -12928z"/>
  <path class="fil5" d="M96331 50129c2589,422 9178,2355 13208,-355 0,0 2661,4058 2204,9152 0,0 -5462,4870 -13998,2916l-1414 -11713z"/>
  <polygon class="fil7" points="97103,89631 104678,91714 104064,95881 95458,94976 "/>
  <path class="fil10" d="M97103 89631c0,0 -17408,-6004 -23861,-8369 -6454,-2364 -15913,-7094 -19649,-3121 -3737,3973 -615,9889 8371,13105 8986,3216 34367,4205 34367,4205 778,-1886 1029,-3827 772,-5820z"/>
  <path class="fil6" d="M112122 89732c0,0 224,988 12,3024 -212,2036 -1369,3501 -1713,6468 0,0 -1003,-1993 -700,-5073 304,-3079 2401,-4419 2401,-4419z"/>
  <path class="fil2" d="M100417 95682c1194,225 3133,1327 4316,2081 1184,753 1788,1491 3994,1652 0,0 477,-5828 857,-7611 381,-1784 769,-2064 769,-2064 0,0 -2052,-34 -3111,429 -1059,463 -1193,703 -2990,629 -1798,-74 -2539,-37 -3319,-114 -1338,1763 -1046,4058 -516,4998z"/>
  <path class="fil6" d="M105777 96761c0,0 -5,-33 -12,-97 -23,-192 -68,-657 -68,-1254 -2,-1052 146,-2512 781,-3589 57,-96 24,-221 -73,-277 -96,-57 -220,-25 -277,72 -696,1190 -835,2706 -837,3794 0,823 83,1402 84,1408 16,112 119,188 230,172 110,-15 188,-118 172,-229z"/>
  <path class="fil6" d="M104539 96295l-4 -19c-17,-93 -91,-533 -91,-1156 0,-854 140,-2049 747,-3166 53,-98 17,-221 -82,-275 -98,-53 -222,-17 -275,82 -651,1202 -795,2462 -796,3359 0,748 101,1246 103,1256 22,109 129,180 240,158 109,-22 180,-129 158,-239z"/>
  <path class="fil6" d="M103158 95592l-3 -12c-19,-69 -105,-419 -105,-972 1,-650 118,-1578 602,-2668 46,-102 0,-222 -103,-268 -102,-45 -222,1 -268,103 -509,1146 -636,2134 -636,2833 0,680 120,1086 125,1101 32,107 145,168 253,136 107,-33 168,-146 135,-253z"/>
  <path class="fil5" d="M108727 99415c698,43 1552,92 1694,-191 142,-282 -535,-2088 67,-5508 323,-1839 1796,-3909 1634,-3984 -163,-74 -1152,-539 -1769,8 -615,546 -3799,4096 -1626,9675z"/>
  <path class="fil11" d="M97080 92756l-391 0c0,0 -11347,-737 -23498,-2741 -11936,-1968 -20006,-5982 -21089,-8935 -531,3571 2908,7677 9862,10166 8987,3216 34367,4205 34367,4205 327,-783 589,-1663 749,-2695z"/>
  <path class="fil1" d="M94674 88792c-33,1506 -313,4475 -873,6540l351 18c547,-2061 818,-4893 862,-6441l-340 -117z"/>
  <path class="fil2" d="M71423 62720c0,0 1353,-3589 428,-8883 0,0 1696,6459 -144,10017l-284 -1134z"/>
  <path class="fil2" d="M97745 61842c0,0 494,-4081 -391,-7885 0,0 1076,2189 1019,8018l-628 -133z"/>
  <path class="fil12" d="M62502 82768c1576,-317 4337,-595 6297,1119 1253,1096 660,1286 -459,1266 -1884,-33 -3385,1548 -3385,1548 0,0 -2452,280 -3054,-1667 -872,-2821 601,-2266 601,-2266z"/>
  <path class="fil13" d="M56511 97122l12103 0c2763,63 4648,-150 6004,-1351 1575,-1394 1848,-3881 1597,-5784 -293,-765 -1966,-198 -4028,-547 -1872,-316 -2954,-1160 -4024,-2586 -1062,-1417 -1633,-1986 -3736,-3010 -1157,-563 -2092,-507 -2092,-507 0,0 743,-1623 1869,-2664 1360,-1258 -1066,-1757 -3831,-515 -1642,738 -3361,2180 -4570,3556 -783,892 -2833,758 -5054,-949 -2221,-1706 -10011,-8787 -18541,-7596 -8530,1191 -14453,8176 -15322,13197 -869,5022 805,7874 2253,8766l37372 -10z"/>
  <path class="fil13" d="M17615 88408c-2375,-1287 -8445,-1370 -13018,2273 -4459,3553 -6316,10966 -2643,16559 3673,5593 10942,5768 11879,4977 938,-791 -3875,-3646 -5181,-7293 0,0 2603,1657 4087,1813 1485,156 -2266,-3676 -2657,-7739 -390,-4062 1615,-8520 6552,-8323l981 -2267z"/>
  <path class="fil9" d="M76084 92701c-266,52 -168,-1415 -489,-1275 -322,140 199,892 199,892 -915,-226 -2207,-1540 -1692,-2353 531,-838 2017,-457 2366,-311 530,222 896,1990 -384,3047z"/>
  <path class="fil12" d="M30745 81576c0,0 3273,269 4525,3807 1253,3537 -139,5662 -1171,6805 0,0 4642,-443 6706,921 2063,1363 1879,4017 1879,4017l1124 6c0,0 49,-3248 -2125,-4611 -2175,-1363 -4010,-1534 -5226,-1449 0,0 1277,-2756 -185,-5996 -1460,-3239 -4237,-3685 -5527,-3500z"/>
  <path class="fil12" d="M47827 91998c0,0 4832,-537 6879,1006 2047,1544 1805,4118 1805,4118l1148 10c0,0 302,-2751 -1779,-4429 -2081,-1678 -6677,-1175 -8053,-705z"/>
  <path class="fil9" d="M61720 89765c0,0 -201,-1204 1223,-1520 1537,-342 1948,808 1948,808 0,0 -777,-299 -1801,-48 -752,183 -1370,760 -1370,760z"/>
  <path class="fil5" d="M61043 21847c279,248 491,533 637,854 146,322 229,653 249,995 21,341 -24,679 -133,1013 -109,334 -284,638 -526,911 -248,279 -532,493 -850,642 -319,148 -648,232 -990,253 -341,20 -679,-24 -1013,-133 -334,-109 -640,-287 -920,-535 -273,-242 -487,-525 -642,-849 -155,-325 -242,-658 -263,-999 -21,-342 22,-681 128,-1018 106,-336 283,-644 531,-924 242,-273 523,-482 845,-628 322,-145 653,-229 995,-249 342,-21 684,25 1027,136 343,112 651,289 925,531zm-12395 -12111l9327 9663 -3124 3524 -10340 -8520 4137 -4667z"/>
  <path class="fil5" d="M69419 16149c91,363 105,717 44,1065 -63,348 -182,668 -358,961 -176,294 -404,547 -682,761 -279,214 -595,365 -949,454 -363,90 -718,106 -1064,48 -347,-57 -666,-174 -960,-350 -293,-176 -546,-403 -761,-683 -213,-279 -365,-599 -456,-961 -88,-354 -105,-708 -49,-1064 56,-355 171,-678 347,-972 177,-294 403,-548 681,-767 278,-218 598,-372 961,-463 354,-88 705,-101 1052,-40 348,63 669,181 962,358 293,176 550,407 770,693 219,286 374,606 462,960zm-1430 -3106l-4175 1042c-275,-858 -408,-1601 -398,-2229 8,-627 98,-1170 269,-1628 169,-457 391,-850 663,-1176 273,-326 546,-616 819,-873 272,-256 510,-497 712,-722 201,-225 316,-472 345,-742 22,-163 -5,-338 -78,-525 -73,-187 -203,-350 -391,-487 -187,-137 -437,-229 -751,-277 -314,-49 -697,-16 -1150,97 -296,74 -642,188 -1035,343 -394,156 -800,344 -1217,566 -417,223 -821,467 -1214,736 -391,268 -734,549 -1029,841l-1751 -4705c259,-257 556,-530 890,-819 334,-289 713,-567 1136,-835 423,-267 894,-518 1413,-753 519,-234 1091,-429 1716,-586 1013,-252 2005,-351 2976,-296 971,55 1863,269 2673,644 811,375 1513,910 2106,1606 594,695 1019,1558 1276,2587 195,782 241,1438 137,1967 -105,529 -291,988 -561,1379 -270,391 -593,743 -970,1055 -377,313 -738,642 -1085,986 -347,345 -647,737 -900,1176 -253,440 -396,982 -426,1628z"/>
 </g>
</svg>
