<?xml version="1.0" encoding="UTF-8"?>
<!DOCTYPE svg PUBLIC "-//W3C//DTD SVG 1.1//EN" "http://www.w3.org/Graphics/SVG/1.1/DTD/svg11.dtd">
<!-- Creator: CorelDRAW X8 -->
<svg xmlns="http://www.w3.org/2000/svg" xml:space="preserve" width="38.6117mm" height="42.3306mm" version="1.1" style="shape-rendering:geometricPrecision; text-rendering:geometricPrecision; image-rendering:optimizeQuality; fill-rule:evenodd; clip-rule:evenodd"
viewBox="0 0 76871 84275"
 xmlns:xlink="http://www.w3.org/1999/xlink">
 <defs>
  <style type="text/css">
   <![CDATA[
    .str0 {stroke:#2F527E;stroke-width:151.704}
    .fil2 {fill:none;fill-rule:nonzero}
    .fil0 {fill:#F9E4E6}
    .fil9 {fill:#FEFEFE;fill-rule:nonzero}
    .fil11 {fill:#FBD2D6;fill-rule:nonzero}
    .fil3 {fill:#FABBA3;fill-rule:nonzero}
    .fil4 {fill:#F79A73;fill-rule:nonzero}
    .fil19 {fill:#F05B66;fill-rule:nonzero}
    .fil8 {fill:#F05659;fill-rule:nonzero}
    .fil15 {fill:#F9F8F8;fill-rule:nonzero}
    .fil18 {fill:#F3F4F4;fill-rule:nonzero}
    .fil16 {fill:#EDEDEB;fill-rule:nonzero}
    .fil17 {fill:#E0E1E2;fill-rule:nonzero}
    .fil10 {fill:#949CA0;fill-rule:nonzero}
    .fil14 {fill:#7BB3E1;fill-rule:nonzero}
    .fil12 {fill:#44616B;fill-rule:nonzero}
    .fil7 {fill:#2D3336;fill-rule:nonzero}
    .fil6 {fill:#313F44;fill-rule:nonzero}
    .fil13 {fill:#2F527E;fill-rule:nonzero}
    .fil1 {fill:#F55658;fill-rule:nonzero}
    .fil5 {fill:#FF7C80;fill-rule:nonzero}
   ]]>
  </style>
 </defs>
 <g id="Camada_x0020_1">
  <metadata id="CorelCorpID_0Corel-Layer"/>
  <circle class="fil0" cx="41498" cy="48902" r="35373"/>
  <path class="fil1" d="M76112 73247l-69228 0c-146,0 -264,-202 -264,-451 0,-249 118,-451 264,-451l69228 0c146,0 264,202 264,451 0,249 -118,451 -264,451z"/>
  <line class="fil2" x1="56574" y1="10694" x2="56574" y2= "10694" />
  <line class="fil2" x1="56574" y1="10694" x2="56574" y2= "10694" />
  <line class="fil2" x1="56574" y1="10694" x2="56574" y2= "10694" />
  <line class="fil2" x1="56574" y1="10694" x2="56574" y2= "10694" />
  <line class="fil2" x1="56574" y1="10694" x2="56574" y2= "10694" />
  <line class="fil2" x1="56574" y1="10694" x2="56574" y2= "10694" />
  <line class="fil2" x1="56574" y1="10694" x2="56574" y2= "10694" />
  <line class="fil2" x1="56574" y1="10694" x2="56574" y2= "10694" />
  <line class="fil2" x1="56574" y1="10694" x2="56574" y2= "10694" />
  <line class="fil2" x1="56574" y1="10694" x2="56574" y2= "10694" />
  <line class="fil2" x1="56574" y1="10694" x2="56574" y2= "10694" />
  <line class="fil2" x1="56574" y1="10694" x2="56574" y2= "10694" />
  <line class="fil2" x1="56574" y1="10694" x2="56574" y2= "10694" />
  <line class="fil2" x1="56574" y1="10694" x2="56574" y2= "10694" />
  <line class="fil2" x1="56574" y1="10694" x2="56574" y2= "10694" />
  <line class="fil2" x1="56574" y1="10694" x2="56574" y2= "10694" />
  <line class="fil2" x1="56574" y1="10694" x2="56574" y2= "10694" />
  <line class="fil2" x1="56574" y1="10694" x2="56574" y2= "10694" />
  <line class="fil2" x1="56574" y1="10694" x2="56574" y2= "10694" />
  <line class="fil2" x1="56574" y1="10694" x2="56574" y2= "10694" />
  <line class="fil2" x1="56574" y1="10694" x2="56574" y2= "10694" />
  <line class="fil2" x1="56574" y1="10694" x2="56574" y2= "10694" />
  <line class="fil2" x1="56574" y1="10694" x2="56574" y2= "10694" />
  <line class="fil2" x1="56574" y1="10694" x2="56574" y2= "10694" />
  <line class="fil2" x1="56574" y1="10694" x2="56574" y2= "10694" />
  <line class="fil2" x1="56574" y1="10694" x2="56574" y2= "10694" />
  <line class="fil2" x1="56574" y1="10694" x2="56574" y2= "10694" />
  <line class="fil2" x1="56574" y1="10694" x2="56574" y2= "10694" />
  <line class="fil2" x1="56574" y1="10694" x2="56574" y2= "10694" />
  <line class="fil2" x1="56574" y1="10694" x2="56574" y2= "10694" />
  <line class="fil2" x1="56574" y1="10694" x2="56574" y2= "10694" />
  <line class="fil2" x1="56574" y1="10694" x2="56574" y2= "10694" />
  <line class="fil2" x1="56574" y1="10694" x2="56574" y2= "10694" />
  <line class="fil2" x1="56574" y1="10694" x2="56574" y2= "10694" />
  <line class="fil2" x1="56574" y1="10694" x2="56574" y2= "10694" />
  <line class="fil2" x1="56574" y1="10694" x2="56574" y2= "10694" />
  <line class="fil2" x1="56574" y1="10694" x2="56574" y2= "10694" />
  <path class="fil3" d="M9780 70170c0,0 4957,-15744 5062,-16255 95,-462 -1799,-11791 -2037,-14723l6697 249c0,0 1,18 1,49l2847 158 -2550 32198 -3082 0 306 -10682c-1901,5102 -4625,10302 -4625,10302l-2619 -1296z"/>
  <path class="fil4" d="M16898 64993c-3,-98 37,-3580 37,-3580 39,209 1182,-3022 1154,-3219 -14,-101 -1191,6799 -1191,6799z"/>
  <path class="fil4" d="M18219 56664c7,0 14,70 20,196 7,126 8,308 -4,533 -4,113 -16,236 -31,368 -16,132 -35,274 -65,420 -56,294 -142,612 -252,938 -224,651 -471,1221 -646,1634 -83,189 -154,351 -215,487 -52,114 -85,176 -91,173 -6,-2 13,-69 54,-188 42,-118 105,-289 185,-499 158,-420 394,-994 616,-1640 109,-323 196,-635 257,-924 32,-143 53,-282 73,-411 18,-130 34,-252 43,-363 21,-222 31,-403 36,-529 7,-125 13,-195 20,-195z"/>
  <path class="fil5" d="M22593 45585c119,-4489 -385,-9139 -784,-10550 -39,-134 -71,-270 -104,-405l-761 -3189c0,0 -317,-258 530,-1386 392,-523 319,-2520 319,-2520l-379 2639 3979 -1916c0,0 -1671,-4759 -2211,-5454 -1401,-1805 -3933,-1490 -3933,-1490l-3315 -38c0,0 -1265,80 -2473,646l-83 21 1 17c-951,464 -1798,1244 -2042,2516 -398,2075 -273,3020 -273,3020l2701 -48 -240 5716c-204,704 -774,535 -1618,3784 -347,1337 -557,2604 -679,3734 -161,1487 -134,2987 61,4470l1516 11512 9174 0 614 -11079z"/>
  <polygon class="fil5" points="15068,26517 15560,28613 10918,28613 11224,25099 "/>
  <path class="fil1" d="M10918 28613c0,-13 234,-38 615,-61 380,-22 906,-41 1488,-38 582,3 1108,28 1488,58 381,30 614,62 613,76 -1,15 -236,8 -617,-4 -379,-11 -904,-25 -1485,-28 -579,-2 -1104,5 -1485,9 -380,4 -616,3 -617,-12z"/>
  <path class="fil1" d="M20944 31592c-6,1 -19,-71 -27,-204 4,-66 -2,-149 17,-242 13,-95 40,-200 80,-313 40,-113 96,-232 163,-354 67,-123 146,-249 229,-380 166,-262 347,-551 458,-884 53,-168 89,-335 98,-500 11,-165 2,-326 -15,-478 -33,-305 -104,-575 -167,-800 -132,-448 -243,-718 -227,-725 7,-2 41,62 95,183 53,120 127,296 201,521 73,224 153,497 192,810 20,156 32,322 21,495 -8,173 -45,351 -100,526 -117,349 -307,643 -477,903 -85,130 -165,252 -234,371 -69,117 -126,231 -169,338 -43,107 -74,207 -91,297 -24,89 -25,169 -35,233 -4,130 -5,203 -12,203z"/>
  <path class="fil1" d="M12805 56664c-2,0 4,-22 18,-66 16,-48 37,-111 63,-191 60,-174 144,-419 252,-733 108,-319 254,-703 417,-1152 164,-449 357,-958 571,-1520 434,-1124 949,-2459 1522,-3941 285,-743 584,-1522 894,-2329 310,-808 622,-1647 941,-2507 313,-863 622,-1703 902,-2522 141,-409 279,-811 414,-1204 128,-396 253,-783 376,-1161 253,-754 449,-1483 655,-2159 96,-340 179,-671 263,-988 80,-318 172,-620 231,-915 64,-293 126,-572 184,-836 29,-133 57,-261 85,-385 21,-126 41,-248 61,-366 38,-235 75,-453 108,-655 33,-202 67,-386 77,-554 31,-329 55,-587 72,-770 9,-84 17,-150 22,-200 5,-46 9,-69 11,-69 2,0 1,23 -1,69 -3,50 -6,117 -11,201 -13,183 -30,443 -53,774 -7,168 -38,353 -69,555 -31,203 -64,423 -100,659 -19,119 -37,241 -57,367 -26,125 -53,254 -81,386 -56,266 -116,547 -178,841 -56,296 -146,598 -224,918 -83,317 -164,650 -258,991 -203,677 -397,1409 -647,2164 -122,379 -246,767 -373,1164 -135,394 -272,797 -412,1206 -279,820 -588,1661 -901,2524 -319,861 -632,1700 -943,2508 -312,806 -614,1585 -901,2327 -579,1479 -1102,2812 -1541,3933 -217,560 -412,1067 -585,1514 -169,447 -320,829 -434,1146 -115,310 -206,554 -270,726 -30,78 -54,140 -72,188 -17,42 -27,63 -28,62z"/>
  <path class="fil1" d="M15268 25082c14,0 19,204 15,533 -3,329 -15,783 -35,1284 -19,502 -42,955 -64,1284 -23,328 -43,530 -57,530 -14,0 -19,-204 -16,-533 4,-329 16,-783 35,-1285 20,-501 43,-954 65,-1283 22,-328 43,-531 57,-530z"/>
  <path class="fil1" d="M15697 34349c-45,0 -91,-2 -137,-5 0,0 -1306,-16 -1726,-884l0 -341 5619 -4834c0,0 -962,6064 -3756,6064z"/>
  <path class="fil6" d="M20944 31441c1,29 -629,75 -1407,104 -777,29 -1408,30 -1409,2 -1,-28 629,-75 1406,-104 778,-29 1409,-30 1410,-2z"/>
  <path class="fil6" d="M19881 31484c1,6 -43,14 -101,-29 -58,-41 -107,-131 -155,-232 -56,-115 -114,-236 -175,-362 -30,-69 -70,-137 -92,-230 -22,-89 0,-218 111,-277 56,-29 124,-20 171,8 47,27 79,64 106,100 51,76 84,148 114,221 57,146 83,286 91,402 14,236 -36,376 -46,373 -17,-2 5,-144 -26,-365 -17,-110 -48,-240 -106,-374 -29,-65 -66,-137 -108,-198 -43,-61 -105,-101 -151,-75 -49,26 -74,98 -57,165 13,69 51,142 79,212 54,128 105,252 155,371 41,108 75,188 116,231 40,44 76,51 74,59z"/>
  <path class="fil6" d="M19887 31590c-12,-5 30,-163 126,-411 48,-123 110,-269 185,-427 37,-79 78,-162 123,-246 22,-43 49,-91 92,-132 40,-43 126,-75 195,-36 65,36 95,104 100,163 5,61 -7,113 -20,160 -24,96 -59,186 -102,266 -86,159 -197,282 -303,367 -215,171 -388,199 -389,189 -7,-16 152,-69 342,-243 93,-87 191,-207 266,-356 37,-76 68,-158 89,-247 25,-88 25,-179 -31,-208 -45,-31 -112,43 -151,124 -43,82 -86,162 -127,241 -79,154 -147,295 -203,414 -111,238 -178,387 -192,382z"/>
  <path class="fil1" d="M15464 29940l-440 -1275 58 -10c16,-1 27,-2 34,-4 3,40 6,62 11,62l0 0c6,0 13,-35 21,-100l412 0 -325 -1384c4,-107 9,-217 13,-330 20,-490 31,-936 35,-1263l540 3646 -359 658z"/>
  <path class="fil1" d="M15560 28613l-412 0c10,-90 23,-239 36,-430 17,-255 35,-585 51,-954l325 1384z"/>
  <path class="fil7" d="M15082 28655l34 -6c0,1 0,2 0,2 -7,2 -18,3 -34,4z"/>
  <path class="fil1" d="M15127 28713l0 0c-5,0 -8,-22 -11,-62 0,0 0,-1 0,-2l6 -1 146 -3115 15 103c-4,327 -15,773 -35,1263 -4,113 -9,223 -13,330 -16,369 -34,699 -51,954 -13,191 -26,340 -36,430 -8,65 -15,100 -21,100z"/>
  <path class="fil8" d="M19858 72005l1 -289 -3157 -138 -9 1194 195 14c867,50 4410,196 4990,22 647,-194 -2020,-803 -2020,-803z"/>
  <polygon class="fil9" points="16700,71867 16700,71850 16700,71850 "/>
  <path class="fil5" d="M16697 72728l0 0 3 -861 0 -17c26,-2 52,-3 77,-3 238,0 467,85 657,233 200,157 341,387 392,636l-1127 -14 -2 26z"/>
  <path class="fil9" d="M19701 72885c-983,-5 -2076,-39 -2826,-98 16,0 32,0 49,0 486,28 1676,80 2777,98zm2149 -69c10,-2 19,-5 28,-8 18,-5 34,-11 47,-17 9,0 20,0 29,0 -22,9 -57,17 -104,25zm-458 -392c-74,-25 -151,-50 -231,-75 0,0 0,0 0,0 0,0 100,30 231,75z"/>
  <path class="fil10" d="M21954 72791c-9,0 -20,0 -29,0 52,-24 64,-53 46,-85 20,25 24,48 7,70 -4,5 -12,10 -24,15zm-5030 -4c-17,0 -33,0 -49,0 -63,-4 -124,-10 -182,-15l0 0 195 14c12,0 24,1 36,1z"/>
  <path class="fil5" d="M19978 72886c-92,0 -184,-1 -277,-1 -1101,-18 -2291,-70 -2777,-98 -12,0 -24,-1 -36,-1l-195 -14 4 -44 1135 23c-2,-12 -4,-23 -6,-35l3056 37c0,0 96,-396 279,-404 80,25 157,50 231,75 213,72 507,186 579,282 18,32 6,61 -46,85 -13,6 -29,12 -47,17 -9,3 -18,6 -28,8 -288,47 -1020,70 -1872,70z"/>
  <path class="fil11" d="M17832 72751l-1135 -23 2 -26 1127 14c2,12 4,23 6,35z"/>
  <path class="fil6" d="M16649 72700c0,1 19,3 54,6 47,3 98,6 155,10 156,7 346,16 571,27 482,19 1149,36 1885,40 736,3 1403,-9 1885,-24 226,-8 416,-16 571,-22 58,-3 109,-6 155,-8 36,-3 55,-5 55,-6 -1,-1 -19,-2 -55,-2 -47,1 -98,1 -155,1 -155,3 -346,6 -571,10 -482,8 -1149,16 -1885,13 -736,-4 -1402,-17 -1884,-29 -225,-6 -416,-11 -571,-15 -57,-1 -109,-2 -155,-3 -36,0 -54,1 -55,2z"/>
  <path class="fil6" d="M20881 72802c11,1 21,-135 107,-272 85,-139 202,-209 196,-218 -3,-10 -138,49 -228,197 -92,148 -85,295 -75,293z"/>
  <path class="fil6" d="M19956 72328c8,6 53,-48 99,-120 46,-72 76,-135 68,-141 -9,-6 -54,48 -100,120 -46,72 -76,135 -67,141z"/>
  <path class="fil6" d="M19702 72193c7,7 57,-25 111,-74 54,-48 92,-94 86,-102 -8,-7 -57,25 -112,74 -54,48 -92,94 -85,102z"/>
  <path class="fil6" d="M19542 71896c0,10 73,20 164,21 90,1 164,-6 164,-16 0,-11 -73,-21 -164,-22 -90,-1 -164,6 -164,17z"/>
  <path class="fil6" d="M19488 71687c-4,9 76,45 182,53 107,9 191,-14 189,-24 -1,-11 -85,-5 -186,-14 -101,-7 -182,-26 -185,-15z"/>
  <path class="fil6" d="M20063 72055c0,4 77,13 202,-1 62,-7 136,-22 215,-46 39,-15 81,-25 123,-51 20,-13 42,-32 50,-63 9,-30 -7,-63 -30,-80 -193,-101 -386,7 -458,107 -40,50 -58,100 -66,134 -9,35 -8,54 -6,54 7,3 14,-79 93,-172 39,-45 97,-89 173,-111 71,-21 172,-26 240,17 32,24 19,62 -16,83 -34,21 -77,34 -114,48 -76,26 -148,43 -208,53 -121,21 -198,21 -198,28z"/>
  <path class="fil6" d="M20116 72065c2,2 32,-50 23,-140 -5,-45 -21,-98 -54,-148 -36,-45 -82,-107 -168,-104 -47,6 -70,60 -62,94 3,35 19,65 33,90 30,50 64,91 95,122 63,62 113,86 116,82 3,-5 -41,-36 -96,-100 -28,-32 -57,-73 -84,-122 -28,-43 -46,-119 4,-128 51,-5 102,46 133,86 31,44 49,91 57,131 15,83 -4,135 3,137z"/>
  <path class="fil6" d="M16717 71841c0,7 90,-8 232,9 140,16 336,74 505,210 170,137 269,315 315,449 47,134 52,225 59,224 2,0 3,-23 0,-63 -3,-41 -13,-100 -34,-170 -40,-140 -139,-327 -316,-469 -177,-142 -382,-198 -527,-208 -73,-5 -132,-2 -173,4 -40,5 -62,11 -61,14z"/>
  <path class="fil6" d="M18229 72450c-2,10 203,42 458,43 256,2 461,-28 459,-38 -1,-11 -205,2 -459,0 -252,-1 -457,-16 -458,-5z"/>
  <path class="fil6" d="M17613 72443c-8,8 17,44 38,91 21,47 32,89 42,88 11,0 17,-50 -8,-104 -24,-54 -65,-83 -72,-75z"/>
  <path class="fil6" d="M17382 72153c-7,8 13,41 45,74 33,33 65,53 73,46 7,-7 -13,-40 -45,-73 -33,-33 -65,-54 -73,-47z"/>
  <path class="fil6" d="M17051 72020c2,11 44,11 90,27 46,15 79,41 87,34 9,-5 -18,-50 -75,-70 -57,-20 -105,0 -102,9z"/>
  <path class="fil6" d="M16815 71957c-4,10 14,26 40,36 26,11 50,11 54,1 4,-10 -14,-26 -40,-36 -26,-10 -50,-10 -54,-1z"/>
  <path class="fil8" d="M12461 71727l120 -264 -2824 -1418 -497 1085 173 92c769,401 3942,1986 4542,2065 670,88 -1514,-1560 -1514,-1560z"/>
  <path class="fil9" d="M9637 70306l7 -15c0,0 0,0 0,0l-7 15z"/>
  <path class="fil5" d="M10316 71543l-1022 -475 -12 23 0 0 355 -785 7 -15c251,90 451,276 575,511 119,225 153,493 97,741z"/>
  <path class="fil9" d="M14057 73302c-24,0 -61,-6 -109,-20 9,2 19,4 27,5 17,2 33,3 46,3 60,0 84,-21 82,-58 6,31 0,53 -23,66 -5,3 -13,4 -23,4zm-401 -597c-46,-42 -95,-85 -144,-128 14,12 70,61 144,128l0 0z"/>
  <path class="fil10" d="M13669 72717c-4,-4 -9,-8 -13,-12l0 0c4,4 9,8 13,12z"/>
  <path class="fil9" d="M11970 72471c-972,-443 -2053,-971 -2710,-1341l0 0 173 92c412,215 1512,768 2537,1249z"/>
  <path class="fil5" d="M14021 73290c-13,0 -29,-1 -46,-3 -8,-1 -18,-3 -27,-5 -310,-82 -1100,-412 -1978,-811 -1025,-481 -2125,-1034 -2537,-1249l-173 -92 22 -39 1026 486c3,-11 6,-23 8,-34l2773 1285c0,0 205,-263 369,-263 18,0 35,3 51,9 0,0 1,1 3,3 49,43 98,86 144,128 4,4 9,8 13,12 166,155 406,394 434,515 2,37 -22,58 -82,58z"/>
  <path class="fil11" d="M10308 71577l-1026 -486 12 -23 1022 475c-2,11 -5,23 -8,34z"/>
  <path class="fil6" d="M9250 71046c-1,1 15,11 47,28 41,22 86,45 137,72 138,71 309,157 510,258 432,215 1032,504 1703,809 670,304 1283,567 1729,751 209,84 386,156 530,214 54,21 102,39 145,56 33,12 51,18 52,17 0,-2 -17,-10 -49,-24 -43,-19 -90,-39 -142,-63 -143,-61 -318,-136 -525,-225 -444,-190 -1054,-456 -1725,-761 -669,-304 -1272,-589 -1706,-798 -204,-97 -376,-180 -516,-247 -51,-25 -98,-46 -140,-66 -33,-15 -50,-22 -50,-21z"/>
  <path class="fil6" d="M13068 72872c10,6 75,-114 210,-204 133,-92 269,-107 267,-119 2,-9 -145,-11 -289,88 -144,96 -197,233 -188,235z"/>
  <path class="fil6" d="M12418 72061c6,9 69,-22 140,-69 72,-46 125,-91 119,-100 -6,-9 -68,22 -140,69 -71,47 -125,92 -119,100z"/>
  <path class="fil6" d="M12242 71834c3,10 62,0 131,-22 70,-22 123,-48 120,-58 -3,-10 -62,0 -131,22 -69,22 -123,48 -120,58z"/>
  <path class="fil6" d="M12218 71497c-4,10 58,49 141,87 82,38 152,62 156,52 5,-9 -58,-48 -140,-86 -82,-39 -152,-62 -157,-53z"/>
  <path class="fil6" d="M12254 71284c-7,7 51,73 145,124 93,52 180,65 182,55 3,-11 -75,-39 -164,-88 -89,-49 -156,-99 -163,-91z"/>
  <path class="fil6" d="M12628 71856c-2,4 65,44 185,82 59,19 132,36 215,46 41,3 83,10 133,4 24,-4 51,-12 71,-36 20,-25 20,-62 6,-86 -135,-171 -355,-152 -462,-91 -57,30 -94,68 -115,96 -22,28 -30,46 -28,47 6,6 45,-67 155,-119 54,-25 126,-41 203,-31 74,11 169,47 213,115 19,35 -8,64 -49,68 -39,6 -84,0 -123,-2 -81,-8 -153,-22 -212,-37 -119,-30 -189,-62 -192,-56z"/>
  <path class="fil6" d="M12672 71886c1,4 50,-31 79,-118 14,-42 21,-97 10,-157 -13,-55 -30,-130 -110,-163 -45,-13 -150,77 -158,111 -11,34 54,16 57,45 6,58 21,109 36,150 32,83 68,125 72,123 5,-3 -22,-50 -46,-131 -12,-41 -23,-90 -27,-146 -8,-50 7,-127 56,-115 48,17 75,84 86,133 11,53 8,103 -2,143 -20,81 -59,121 -53,125z"/>
  <path class="fil6" d="M9663 70290c-2,7 85,29 208,103 122,73 276,206 375,399 99,194 116,397 103,538 -12,143 -45,227 -38,229 2,1 13,-19 26,-58 14,-38 30,-96 39,-168 20,-144 7,-356 -96,-558 -103,-202 -267,-337 -396,-405 -64,-35 -120,-56 -159,-67 -39,-12 -61,-15 -62,-13z"/>
  <path class="fil6" d="M10793 71465c-5,8 168,122 400,228 233,106 432,162 435,152 4,-10 -189,-82 -419,-187 -230,-105 -411,-203 -416,-193z"/>
  <path class="fil6" d="M10234 71207c-10,3 -3,46 -3,98 0,51 -7,94 3,98 9,4 35,-39 35,-98 0,-60 -26,-102 -35,-98z"/>
  <path class="fil6" d="M10142 70848c-10,4 -5,42 11,85 16,44 37,76 47,72 10,-4 5,-41 -11,-85 -16,-43 -37,-76 -47,-72z"/>
  <path class="fil6" d="M9894 70591c-2,10 36,27 71,61 36,33 56,70 66,67 10,-2 5,-54 -40,-95 -44,-41 -96,-43 -97,-33z"/>
  <path class="fil6" d="M9705 70436c-8,8 2,30 22,50 19,20 41,30 49,23 7,-7 -3,-30 -22,-50 -20,-20 -42,-30 -49,-23z"/>
  <path class="fil3" d="M21598 22749c27,-262 79,-617 91,-780 37,-497 121,-608 287,-534 269,120 -13,1391 181,1408 104,10 243,-734 299,-1100 59,-392 100,-923 125,-1112 27,-209 382,-256 369,114 -13,382 -31,1435 58,1477 246,114 237,-1390 296,-1881 13,-110 37,-187 68,-240 84,-150 316,-93 339,77 65,479 -30,1775 6,1984 11,65 172,97 212,-118 53,-288 30,-1668 313,-1545 312,134 -23,1766 105,1933 237,309 264,-1465 559,-1388 149,39 145,95 -6,1042 -69,436 -361,1381 -520,2189 684,2412 1880,6929 1706,8418 -101,854 -2080,1444 -2929,807 -849,-637 -1440,-3471 -1440,-3471l1020 -604 -998 -5464c-42,-115 -60,-413 -121,-554 -70,-163 -37,-481 -20,-658z"/>
  <path class="fil4" d="M23317 32305c-28,6 -176,-633 -331,-1427 -155,-793 -258,-1441 -231,-1447 28,-5 176,634 332,1428 155,793 258,1441 230,1446z"/>
  <path class="fil6" d="M20885 19122c865,-125 1742,-160 2614,-105 136,-244 157,-548 57,-808 -101,-260 -321,-471 -585,-560 -108,-36 -227,-56 -310,-134 -135,-126 -116,-342 -70,-521 45,-178 105,-373 23,-538 -128,-258 -503,-263 -712,-461 -240,-228 -184,-614 -229,-942 -83,-592 -600,-1095 -1194,-1161l406 5230z"/>
  <path class="fil6" d="M17711 12390c-969,-235 -2066,249 -2545,1123 -260,474 -393,1085 -876,1327 -296,148 -644,111 -973,142 -329,31 -700,183 -778,504 -79,325 169,722 -50,974 -141,162 -390,152 -587,236 -400,169 -513,687 -470,1119 44,431 187,868 85,1290 439,134 883,270 1341,293 459,25 940,-74 1296,-363 -38,188 84,380 249,479 164,99 361,123 553,135 628,39 1262,-31 1865,-208l890 -7051z"/>
  <path class="fil3" d="M19868 21548c-12,-819 -25,-1630 -25,-1630 0,0 1326,-130 1420,-1477 95,-1346 47,-4455 47,-4455l-2399 -1234 -2556 2068 105 6810c31,953 837,1695 1789,1647 917,-46 1633,-810 1619,-1729z"/>
  <path class="fil6" d="M21023 16286c-1,96 -77,172 -170,171 -93,-1 -167,-79 -166,-174 1,-95 77,-172 170,-171 92,1 167,79 166,174z"/>
  <path class="fil6" d="M21187 16100c-22,22 -145,-87 -325,-99 -181,-15 -318,76 -337,51 -9,-11 14,-52 74,-94 59,-40 158,-77 271,-69 112,8 205,59 257,108 54,50 71,93 60,103z"/>
  <path class="fil6" d="M19076 16287c-1,95 -78,172 -170,171 -93,-1 -168,-79 -167,-175 1,-95 77,-171 170,-170 93,1 168,79 167,174z"/>
  <path class="fil6" d="M19182 16100c-22,22 -145,-87 -326,-99 -180,-15 -317,76 -336,51 -9,-11 14,-52 74,-94 58,-40 157,-77 270,-69 113,8 205,59 258,108 53,50 71,93 60,103z"/>
  <path class="fil6" d="M19818 17617c0,-12 113,-24 297,-37 46,-2 90,-9 99,-42 13,-35 -4,-90 -24,-149 -38,-123 -78,-251 -121,-386 -166,-549 -284,-1000 -263,-1006 20,-7 172,433 338,982 40,136 78,265 114,388 15,57 43,123 16,196 -14,36 -49,61 -79,67 -30,8 -56,7 -79,7 -184,-2 -298,-9 -298,-20z"/>
  <path class="fil6" d="M14347 16053c15,-95 -13,104 6,-46l0 -1c26,-208 55,-427 87,-545 746,-2803 3157,-3302 3634,-3297 510,6 1970,-37 2783,981 1073,1343 465,2674 465,2674l-2128 -376c158,-531 -59,-1193 -182,-1502l-13 -11c-404,2012 -2573,2464 -2573,2464l-25 2951c-1581,-229 -2091,-2125 -2054,-3292z"/>
  <path class="fil3" d="M16453 17620c12,-202 106,-687 39,-877 -68,-191 -280,-234 -513,-232 -233,2 -513,217 -505,504 7,232 84,472 284,591 200,120 457,124 674,38l21 -24z"/>
  <path class="fil4" d="M16201 17354c-7,-13 -66,15 -151,-14 -86,-23 -171,-123 -175,-263 -3,-68 14,-131 48,-160 35,-32 90,-39 133,-36 91,11 154,37 160,21 4,-10 -39,-57 -147,-91 -54,-14 -132,-19 -205,34 -73,56 -94,152 -90,236 3,87 34,170 84,230 50,61 120,92 176,99 120,15 177,-48 167,-56z"/>
  <path class="fil6" d="M19807 18004c-9,-8 34,-60 126,-40 43,9 98,48 115,113 17,61 2,141 -63,191 -68,48 -149,38 -202,1 -58,-38 -74,-107 -65,-150 18,-94 89,-109 91,-96 7,12 -25,45 -19,100 3,28 17,53 43,67 26,14 68,14 91,-4 25,-18 38,-57 32,-87 -3,-31 -23,-53 -48,-67 -50,-28 -94,-15 -101,-28z"/>
  <path class="fil6" d="M19287 15568c-6,29 -205,0 -437,55 -233,51 -399,163 -418,139 -19,-18 135,-181 395,-239 260,-60 470,20 460,45z"/>
  <path class="fil12" d="M18416 12184c-1,9 -80,-2 -221,1 -142,3 -346,28 -583,114 -235,87 -499,239 -735,472 -236,232 -435,547 -574,904 -278,723 -272,1443 -263,1949 8,238 16,440 22,604 5,143 5,223 -2,223 -7,1 -20,-77 -38,-219 -17,-143 -39,-349 -55,-605 -15,-256 -24,-563 3,-904 26,-340 95,-714 237,-1085 144,-369 353,-696 604,-935 251,-239 530,-391 777,-473 249,-80 463,-95 607,-85 72,5 128,12 165,22 37,8 57,13 56,17z"/>
  <path class="fil4" d="M19989 19889c2,12 -118,44 -317,59 -198,11 -479,0 -773,-90 -296,-86 -538,-239 -684,-376 -149,-136 -211,-246 -202,-252 13,-11 94,80 248,196 152,117 385,252 667,334 567,171 1060,93 1061,129z"/>
  <path class="fil3" d="M13469 28580l1555 85c98,504 440,1275 440,1275 1251,-2172 2222,-5083 2463,-6253 -35,-117 -77,-247 -129,-391 -60,-167 -8,-482 20,-658 42,-260 115,-611 137,-773 66,-494 146,-572 318,-516 235,76 -96,1388 97,1417 103,15 229,-435 266,-804 36,-368 203,-1503 325,-1579 179,-111 335,65 290,432 -46,372 -104,1481 91,1496 192,15 353,-1867 353,-1867 0,0 -30,-409 196,-399 407,17 89,2001 54,2189 -24,130 187,154 206,12 19,-146 117,-1881 532,-1867 318,11 -247,1634 -68,2011 178,376 303,-1279 606,-1256 113,9 197,31 -11,967 -111,504 -439,1429 -726,2195 -482,2596 -2594,10903 -5907,9382 -1853,-851 -2718,-5063 -2718,-5063l1610 -35z"/>
  <path class="fil4" d="M20045 22342c0,0 -14,3 -43,-6 -25,-8 -75,-39 -67,-104 4,-111 22,-274 47,-484 19,-211 83,-465 83,-765 3,-151 -1,-313 -10,-484 -6,-86 -7,-175 -26,-259 -14,-81 -69,-174 -132,-163l-7 1 -3 0c-64,-3 -113,47 -134,123 -22,73 -28,159 -23,241l0 3 0 2c-43,460 -88,963 -193,1501 -14,67 -29,134 -50,202 -10,34 -22,69 -37,103 -10,18 -16,35 -31,53 -13,16 -29,43 -75,48 -75,-6 -96,-62 -113,-95 -16,-37 -26,-74 -34,-110 -15,-73 -23,-146 -29,-219 -19,-293 -9,-593 12,-899 7,-155 45,-310 19,-450 -12,-69 -41,-139 -88,-168 -23,-14 -49,-17 -78,-10l-42 19c-12,11 -9,6 -20,26 -60,129 -91,296 -125,452 -31,159 -59,321 -85,485 -25,164 -48,329 -68,497 -16,167 -40,342 -82,511 -22,85 -46,169 -81,254 -19,42 -38,84 -74,127 -14,18 -56,52 -108,39 -51,-17 -65,-57 -73,-81 -29,-103 -21,-189 -19,-279 3,-90 11,-178 18,-266 13,-151 27,-301 33,-449 2,-73 2,-146 -6,-216 -4,-34 -10,-68 -22,-93l-17 -27 -7 -5 -23 -6c-119,-49 -159,116 -191,250 -27,139 -45,283 -73,425 -47,283 -108,564 -139,835 -13,134 -23,273 16,386 42,130 84,259 126,386l4 12 -3 12c-219,966 -522,1830 -804,2598 -284,766 -569,1429 -820,1971 -250,542 -475,960 -630,1245 -79,135 -141,242 -187,321 -43,73 -67,110 -69,108 -3,-1 16,-41 55,-116 43,-81 100,-190 173,-328 146,-289 362,-710 604,-1255 243,-544 519,-1208 797,-1975 275,-766 574,-1633 786,-2589l2 24c-42,-126 -84,-253 -126,-381 -49,-146 -34,-290 -22,-430 32,-281 90,-554 137,-838 28,-141 45,-285 74,-432 17,-74 33,-148 73,-223 20,-36 50,-77 100,-99 50,-22 101,-16 141,-6l31 8 40 23c23,21 36,43 46,64 19,44 24,83 30,123 9,79 8,156 6,232 -5,152 -20,303 -33,454 -7,87 -14,175 -18,261 -3,84 -6,176 13,241 5,19 13,16 3,25l0 1 -1 6 0 -1 0 -7 -3 -8 11 -10c19,-23 39,-60 55,-97 32,-76 55,-157 76,-239 41,-165 64,-328 81,-498 20,-169 44,-336 69,-501 26,-164 54,-328 87,-489 37,-162 61,-318 137,-480 4,-16 36,-52 56,-63 20,-12 43,-21 67,-28 48,-13 108,-7 152,21 89,59 117,153 133,234 14,84 12,166 3,246 -9,77 -17,152 -23,228 -22,303 -34,600 -16,885 5,71 12,141 26,208 7,33 15,65 27,93l20 33c7,15 12,-3 12,21 -9,-18 -1,-8 6,-24l22 -37c12,-29 24,-60 34,-92 20,-64 35,-130 49,-195 107,-528 157,-1033 203,-1489l0 6c-3,-92 3,-181 30,-267 14,-43 34,-86 70,-120 36,-35 87,-50 133,-49l-10 2c72,-13 125,30 155,74 31,44 45,93 55,139 20,95 20,184 25,270 6,173 7,336 2,488 -5,306 -75,560 -99,769 -31,209 -55,371 -65,480 -11,52 31,85 53,94 25,11 40,13 39,15z"/>
  <path class="fil13" d="M56394 59498c-3056,-2136 -3750,-6100 -3629,-9663 20,-595 -45,-1222 238,-1744 283,-522 943,-878 1476,-628 441,208 634,722 881,1147 329,565 818,1033 1395,1333 379,196 847,316 1221,110 513,-283 574,-992 570,-1584 -7,-1102 -14,-2205 -21,-3307 -3,-592 -5,-1196 179,-1757 184,-562 590,-1083 1153,-1241 563,-157 1258,167 1378,746 49,241 0,491 16,737 17,245 131,517 364,585 236,70 473,-98 650,-271 611,-597 1025,-1367 1412,-2132 387,-765 763,-1549 1317,-2200 554,-652 1321,-1168 2168,-1216 847,-48 1750,475 1964,1307 214,834 -272,1680 -802,2355 -785,1002 -1715,1888 -2749,2621 -186,132 -388,275 -460,494 -128,395 245,786 635,916 441,147 919,101 1380,155 462,54 961,258 1136,694 242,604 -264,1238 -761,1653 -996,832 -2134,1488 -3348,1933 -435,159 -893,299 -1244,605 -351,305 -563,837 -350,1254 212,417 756,550 1212,466 455,-85 863,-332 1298,-496 813,-307 1863,-251 2383,452 342,462 373,1104 200,1655 -173,551 -525,1025 -897,1462 -1303,1529 -2971,2759 -4857,3413 -1886,654 -3633,831 -5508,146z"/>
  <path class="fil14" d="M56348 62140c129,-1412 438,-3079 966,-4876 525,-1798 1263,-3722 2104,-5707 213,-495 422,-985 629,-1468 207,-481 412,-958 642,-1412 457,-911 965,-1752 1472,-2535 506,-784 1016,-1509 1497,-2184 483,-674 945,-1293 1390,-1840 888,-1098 1707,-1896 2291,-2421 292,-264 525,-461 685,-593 77,-62 137,-111 183,-148 41,-33 63,-49 64,-48 1,2 -18,21 -57,57 -44,38 -102,90 -176,156 -155,137 -383,339 -670,607 -575,535 -1383,1339 -2260,2439 -440,548 -898,1169 -1377,1844 -477,677 -983,1403 -1487,2186 -503,783 -1007,1622 -1459,2528 -228,452 -432,926 -639,1408 -207,482 -416,972 -628,1467 -841,1984 -1580,3902 -2108,5693 -531,1790 -848,3448 -986,4854l-76 -7z"/>
  <path class="fil14" d="M60721 48672c-8,1 -28,-88 -58,-252 -31,-164 -68,-401 -110,-696 -84,-589 -171,-1406 -265,-2308 -93,-902 -192,-1715 -284,-2302 -46,-293 -85,-530 -114,-693 -28,-164 -41,-255 -33,-257 7,-2 33,87 74,248 42,161 93,397 148,689 112,585 224,1401 317,2304 90,889 171,1694 234,2309 29,278 54,512 75,700 17,165 23,257 16,258z"/>
  <path class="fil14" d="M68326 47251c1,7 -108,20 -303,36 -195,18 -478,41 -826,82 -696,75 -1655,213 -2706,410 -1051,200 -1994,422 -2672,602 -340,87 -613,166 -801,218 -189,54 -295,81 -297,73 -3,-7 99,-47 284,-114 185,-65 456,-155 794,-252 674,-200 1618,-434 2672,-635 1054,-198 2018,-325 2719,-380 350,-30 635,-42 831,-46 196,-3 305,-2 305,6z"/>
  <path class="fil6" d="M57408 57124c-4,1 -21,-30 -52,-93 -36,-74 -79,-165 -130,-275 -112,-239 -265,-590 -448,-1026 -367,-871 -836,-2090 -1336,-3443 -499,-1353 -956,-2575 -1305,-3453 -170,-427 -311,-778 -415,-1039 -44,-113 -81,-206 -112,-283 -24,-65 -35,-100 -32,-102 4,-1 22,31 53,93 35,74 78,165 130,275 111,240 264,590 448,1026 366,871 836,2091 1335,3444 500,1353 956,2575 1305,3453 170,426 311,777 415,1038 45,113 82,207 112,283 24,66 35,101 32,102z"/>
  <path class="fil14" d="M67515 53867c1,4 -34,18 -101,41 -79,26 -176,59 -293,98 -271,88 -637,207 -1083,351 -914,297 -2171,720 -3560,1191 -1389,470 -2651,883 -3572,1160 -460,139 -833,248 -1092,317 -121,32 -219,58 -300,79 -69,17 -105,24 -106,20 -1,-4 34,-18 100,-41 79,-27 176,-59 293,-99 272,-88 637,-206 1083,-351 914,-296 2171,-720 3560,-1190 1389,-470 2651,-883 3572,-1160 460,-139 833,-248 1093,-318 120,-31 218,-57 299,-78 69,-17 105,-24 107,-20z"/>
  <path class="fil13 str0" d="M52781 68318l-21205 -98c-2551,-12 -4609,-2088 -4598,-4639l225 -53161c11,-2551 2088,-4611 4640,-4599l21205 98c2550,12 4609,2088 4597,4639l-224 53160c-11,2552 -2089,4612 -4640,4600z"/>
  <path class="fil15" d="M53018 7648l-4112 -19c-551,-2 -1000,463 -1002,1039l-4 746c-2,576 -451,1042 -1002,1039l-8014 -37c-551,-2 -996,-472 -994,-1048l3 -746c3,-576 -442,-1046 -994,-1048l-1445 -7 -3599 -17c-1787,-8 -3242,1435 -3250,3222l-219 51889c-8,1786 1434,3240 3220,3248l21162 98c1787,8 3243,-1434 3250,-3221l220 -51889c7,-1786 -1434,-3241 -3220,-3249z"/>
  <path class="fil16" d="M54168 54059l-23712 0c-628,0 -1137,-509 -1137,-1137l0 -33761c0,-628 509,-1137 1137,-1137l23712 0c628,0 1137,509 1137,1137l0 33761c0,628 -509,1137 -1137,1137z"/>
  <path class="fil5" d="M39620 26172l-5285 12107c-700,1602 585,3364 2324,3187 3672,-372 9175,-939 12989,-1333 1892,-196 2835,-2393 1673,-3899l-8100 -10506c-978,-1269 -2959,-1025 -3601,444z"/>
  <path class="fil15" d="M36938 40922c-398,-13 -788,-136 -1112,-350 -654,-424 -1034,-1183 -1003,-1918 9,-91 9,-183 26,-272 20,-88 36,-178 59,-265l92 -252c32,-81 67,-155 100,-232 135,-305 267,-605 398,-900 522,-1179 1009,-2278 1453,-3282 891,-2005 1616,-3626 2124,-4743 256,-555 455,-987 592,-1284 136,-288 213,-439 225,-439 0,0 0,0 0,0 10,4 -48,164 -168,464 -125,302 -306,742 -539,1307 -475,1132 -1170,2765 -2035,4782 -434,1008 -909,2112 -1419,3297 -128,296 -258,597 -390,903 -32,76 -68,154 -98,230l-79 224c-19,76 -33,155 -50,232 -15,79 -13,159 -21,239 -23,641 315,1306 887,1671 283,185 621,290 967,299l260 -10 279 -28c187,-20 375,-40 564,-60 755,-78 1526,-159 2312,-241 1570,-162 3196,-330 4862,-502 833,-86 1655,-170 2466,-253 406,-41 808,-82 1207,-123 376,-38 733,-172 1027,-392 596,-437 900,-1205 804,-1905 -46,-350 -183,-685 -395,-962 -226,-294 -448,-586 -668,-874 -1762,-2304 -3348,-4380 -4681,-6124 -663,-874 -1263,-1664 -1790,-2359 -66,-87 -130,-175 -197,-248 -33,-38 -65,-76 -98,-112 -37,-33 -74,-65 -111,-97 -144,-130 -311,-219 -473,-295 -238,-96 -478,-136 -703,-136 -91,0 -179,7 -264,19 -294,41 -547,143 -739,270 -101,55 -177,132 -256,190 -66,71 -133,131 -183,192 -48,63 -90,119 -128,168 -33,50 -56,95 -78,130 -41,69 -66,104 -71,104 0,0 0,0 -1,0 -5,-2 10,-42 44,-118 18,-38 37,-87 67,-141 34,-53 74,-113 118,-181 48,-67 113,-133 180,-210 78,-64 154,-148 258,-211 196,-141 459,-258 771,-311 106,-19 219,-29 335,-29 225,0 465,38 704,129 178,76 360,170 521,307 40,34 81,69 122,104 38,38 73,79 110,120 77,81 140,165 208,251 538,686 1150,1468 1826,2331 1348,1733 2952,3795 4733,6085 222,287 447,578 674,872 241,313 402,696 456,1097 112,804 -230,1679 -914,2185 -338,255 -753,410 -1176,453 -400,42 -802,83 -1207,125 -811,84 -1634,169 -2467,254 -1666,170 -3292,336 -4863,497 -785,79 -1557,157 -2313,233 -188,19 -376,38 -563,57l-280 28 -298 10z"/>
  <path class="fil15" d="M42309 35241c-386,0 -718,-280 -781,-664l-789 -4825c-57,-350 190,-677 543,-717l1183 -134c24,-3 48,-4 71,-4 341,0 624,278 620,628l-55 4933c-5,422 -339,766 -760,782 -11,1 -21,1 -32,1z"/>
  <path class="fil15" d="M42637 38586c-87,0 -175,-9 -263,-29 -642,-145 -1045,-782 -900,-1424 125,-553 616,-929 1161,-929 86,0 174,9 262,29 642,145 1045,782 901,1424 -125,553 -617,929 -1161,929z"/>
  <path class="fil5" d="M33997 23308l-3936 3599c-520,477 -336,1337 335,1558 1415,465 3539,1158 5011,1638 729,238 1438,-417 1256,-1164l-1265 -5204c-153,-629 -924,-864 -1401,-427z"/>
  <path class="fil15" d="M35512 29971c-113,0 -226,-18 -331,-53 -154,-50 -310,-100 -466,-151 -313,-102 -631,-206 -952,-311 -642,-211 -1269,-417 -1875,-616 -302,-100 -600,-199 -891,-295 -72,-24 -145,-49 -217,-72l-107 -36 -122 -50c-159,-77 -294,-198 -386,-343 -188,-289 -203,-663 -58,-953 36,-73 82,-139 132,-200l82 -85 76 -69c100,-90 198,-178 296,-265 388,-346 750,-669 1082,-964 663,-588 1203,-1060 1581,-1380 362,-308 575,-476 605,-476 1,0 2,0 3,1 -4,-5 34,-68 148,-142 84,-53 222,-111 398,-111 58,0 120,6 186,21 129,30 269,97 389,212 120,111 206,291 245,464 89,342 191,729 304,1157 219,861 479,1882 767,3016 35,142 71,287 107,433 42,168 39,352 -11,524 -99,345 -392,635 -760,718 -73,18 -149,26 -225,26zm-1548 -6318l0 0c14,15 -174,215 -528,563 -353,348 -871,844 -1515,1452 -323,304 -677,636 -1057,992 -95,89 -192,179 -290,271l-73 68 -59 63c-35,46 -67,94 -92,146 -100,209 -84,478 52,681 66,102 161,185 274,238l87 35 108 34c72,23 145,47 218,70 292,94 590,190 893,288 606,197 1234,402 1877,611 321,105 638,209 951,311 156,52 311,103 465,153 80,27 160,40 240,40 52,0 104,-6 155,-17 259,-55 474,-265 545,-508 37,-122 41,-252 12,-376 -34,-145 -67,-289 -101,-431 -264,-1140 -502,-2166 -703,-3032 -96,-431 -184,-822 -260,-1168 -33,-171 -89,-298 -183,-402 -93,-101 -206,-164 -315,-199 -79,-24 -154,-33 -222,-33 -125,0 -230,31 -302,63 -104,46 -156,88 -173,88 -2,0 -3,0 -4,-1l0 0z"/>
  <path class="fil15" d="M33631 27122c-39,0 -79,-7 -118,-22 -150,-60 -232,-222 -191,-378l500 -1910c30,-113 132,-187 243,-187 25,0 50,4 76,11l458 145c144,46 215,207 152,344l-829 1811c-54,117 -169,186 -291,186z"/>
  <path class="fil15" d="M33268 28424c-100,0 -200,-31 -286,-96 -214,-158 -258,-459 -99,-672 94,-127 239,-194 386,-194 100,0 200,31 286,95 214,159 258,460 99,673 -94,127 -239,194 -386,194z"/>
  <path class="fil5" d="M49100 24424l-893 4070c-118,538 387,1005 915,844 1113,-341 2780,-853 3936,-1209 574,-177 730,-914 279,-1309l-3150 -2754c-381,-332 -979,-135 -1087,358z"/>
  <path class="fil15" d="M49066 29259c-101,0 -201,-19 -293,-57 -259,-105 -444,-346 -483,-606 -10,-66 -11,-131 -6,-195l15 -94 18 -79c23,-102 47,-203 70,-302 93,-395 181,-764 261,-1102 162,-673 298,-1216 399,-1591 100,-369 165,-574 187,-574 0,0 0,0 0,0 -7,-1 -14,-59 25,-160 37,-97 135,-246 334,-329 73,-31 160,-51 254,-51 32,0 64,3 97,7 129,17 271,96 374,188 213,178 454,378 719,598 529,451 1156,984 1852,1575 86,75 174,151 264,228 106,92 190,215 237,353 97,276 39,605 -167,833 -101,114 -238,199 -382,243 -121,37 -243,75 -366,113 -246,76 -495,153 -747,230 -505,154 -998,305 -1475,450 -238,72 -472,143 -702,212l-171 51 -85 26 -104 23c-41,7 -83,10 -125,10zm168 -4600l0 0c21,5 -5,218 -70,600 -65,382 -169,933 -304,1612 -69,340 -144,711 -224,1109 -21,100 -42,201 -63,304l-15 77 -9 63c-1,43 0,85 7,127 29,168 154,324 322,388 57,22 117,34 178,34 29,0 58,-3 87,-8l68 -16 84 -27 171 -54c228,-71 461,-144 699,-218 476,-148 968,-300 1473,-456 252,-77 501,-154 747,-229 123,-37 245,-75 367,-111 98,-30 181,-82 247,-154 133,-143 174,-361 114,-538 -30,-89 -82,-169 -152,-232 -87,-77 -174,-154 -259,-230 -679,-610 -1291,-1160 -1808,-1624 -254,-234 -485,-445 -689,-632 -125,-135 -274,-187 -410,-187 -57,0 -112,9 -161,25 -169,53 -269,165 -320,245 -51,80 -65,132 -79,132 0,0 -1,0 -1,0l0 0z"/>
  <path class="fil15" d="M50439 27070c-102,0 -196,-63 -234,-162l-539 -1444c-40,-106 17,-222 124,-256l357 -114c20,-6 40,-9 60,-9 92,0 175,65 192,160l286 1530c24,130 -58,257 -187,288 -20,5 -39,7 -59,7z"/>
  <path class="fil15" d="M50721 28087c-3,0 -6,0 -10,0 -207,-5 -371,-178 -366,-385 6,-204 173,-366 376,-366 3,0 7,0 10,0 207,6 371,178 366,385 -6,205 -173,366 -376,366z"/>
  <path class="fil8" d="M32401 42444c-5,5 -54,-40 -138,-127 -43,-43 -94,-97 -147,-165 -53,-67 -118,-141 -177,-233 -126,-176 -256,-401 -377,-662 -116,-263 -221,-562 -293,-887 -68,-325 -96,-641 -98,-929 3,-287 28,-546 71,-758 16,-108 44,-202 65,-286 20,-83 44,-153 66,-210 41,-114 67,-176 73,-173 19,6 -70,258 -133,681 -33,210 -50,464 -48,746 8,281 37,590 104,908 70,317 170,611 279,870 114,257 234,482 352,660 231,359 416,552 401,565z"/>
  <path class="fil8" d="M34113 42692c-4,6 -63,-32 -168,-106 -53,-37 -116,-84 -184,-145 -68,-60 -149,-125 -227,-210 -164,-161 -339,-374 -510,-626 -165,-255 -324,-552 -449,-881 -121,-331 -196,-659 -239,-960 -36,-302 -44,-577 -25,-807 2,-115 22,-217 33,-308 11,-90 28,-167 44,-229 31,-125 50,-192 58,-191 19,4 -49,280 -63,732 -9,225 6,495 47,790 47,294 123,614 241,937 123,321 275,613 432,866 163,249 328,462 483,627 308,332 540,495 527,511z"/>
  <path class="fil8" d="M52394 40599c-17,-9 136,-283 310,-755 88,-235 172,-523 245,-846 68,-325 121,-686 141,-1069 17,-382 -2,-747 -38,-1077 -42,-329 -98,-623 -163,-865 -128,-487 -254,-774 -236,-782 6,-3 42,67 100,197 61,128 132,322 205,565 75,243 140,540 188,874 42,334 64,705 47,1093 -21,389 -78,756 -152,1085 -79,327 -172,616 -270,851 -96,235 -186,421 -258,543 -71,124 -113,190 -119,186z"/>
  <path class="fil8" d="M53972 40195c-17,-9 106,-233 237,-620 67,-192 128,-427 178,-692 44,-265 74,-560 73,-870 -4,-311 -38,-605 -86,-869 -53,-264 -117,-498 -187,-690 -137,-384 -263,-606 -246,-615 6,-4 41,49 100,149 61,98 136,249 214,441 79,191 152,428 211,696 55,269 93,570 97,887 0,318 -33,619 -83,889 -56,268 -126,506 -203,699 -75,193 -147,345 -206,444 -58,100 -93,154 -99,151z"/>
  <polygon class="fil17" points="29319,20045 55305,20045 55305,16476 29319,16476 "/>
  <path class="fil18" d="M31410 18293c0,270 -220,489 -490,489 -270,0 -489,-219 -489,-489 0,-270 219,-489 489,-489 270,0 490,219 490,489z"/>
  <path class="fil18" d="M33415 18293c0,270 -219,489 -489,489 -270,0 -489,-219 -489,-489 0,-270 219,-489 489,-489 270,0 489,219 489,489z"/>
  <path class="fil18" d="M35421 18293c0,270 -219,489 -489,489 -270,0 -489,-219 -489,-489 0,-270 219,-489 489,-489 270,0 489,219 489,489z"/>
  <path class="fil13" d="M15379 14416c-286,-70 -1662,-408 -4326,-1063l32 -5c-951,607 -2240,1096 -3734,1120 -743,-3 -1530,-93 -2314,-338 -784,-244 -1555,-650 -2255,-1196 -1402,-1084 -2493,-2821 -2729,-4821 -120,-993 -39,-2038 270,-3038 315,-997 858,-1942 1589,-2738 371,-420 808,-768 1253,-1091 234,-144 465,-294 706,-421l368 -177 183 -89 191 -69c1007,-391 2080,-542 3110,-474 1031,66 2018,355 2881,809 865,453 1607,1069 2189,1768 584,699 1008,1481 1278,2270 269,790 392,1585 399,2336 9,1508 -462,2802 -1036,3747l1 -39c1202,2170 1810,3267 1944,3509 -139,-239 -767,-1324 -2012,-3471l-11 -19 11 -20c560,-940 1016,-2220 999,-3707 -11,-740 -136,-1522 -405,-2298 -268,-775 -688,-1542 -1264,-2227 -575,-686 -1305,-1288 -2155,-1731 -848,-444 -1817,-725 -2828,-789 -1011,-65 -2062,85 -3050,468l-187 69 -179 86 -360 174c-237,125 -463,272 -692,413 -436,317 -865,659 -1228,1071 -717,780 -1250,1706 -1559,2683 -304,979 -384,2004 -267,2978 228,1962 1294,3669 2668,4739 687,538 1443,940 2213,1183 771,244 1544,336 2276,343 1473,-16 2747,-490 3693,-1082l15 -9 16 4c2651,703 4022,1067 4306,1142z"/>
  <path class="fil8" d="M6641 4024l229 3614c19,295 255,531 550,548 312,19 584,-210 618,-521l401 -3632c31,-275 -187,-514 -464,-510l-881 12c-263,4 -469,227 -453,489z"/>
  <path class="fil19" d="M8378 10219c-153,462 -652,712 -1115,559 -462,-154 -712,-653 -559,-1115 154,-462 653,-713 1115,-560 462,154 713,653 559,1116z"/>
 </g>
</svg>
